<svg width="25" height="25" viewBox="0 0 25 25" fill="none" xmlns="http://www.w3.org/2000/svg">
<g clip-path="url(#clip0_593_1956)">
<path d="M24.6 13.0884C24.6 12.2727 24.5339 11.4526 24.3928 10.6501H13.074V15.2711H19.5557C19.2867 16.7614 18.4225 18.0798 17.157 18.9176V21.9159H21.024C23.2948 19.8259 24.6 16.7394 24.6 13.0884Z" fill="#4285F4"/>
<path d="M13.074 24.8128C16.3104 24.8128 19.0398 23.7502 21.0284 21.9159L17.1614 18.9176C16.0855 19.6495 14.6966 20.064 13.0784 20.064C9.94775 20.064 7.29333 17.9519 6.34091 15.1123H2.35046V18.2032C4.38758 22.2554 8.53676 24.8128 13.074 24.8128Z" fill="#34A853"/>
<path d="M6.33651 15.1123C5.83385 13.6219 5.83385 12.0081 6.33651 10.5178V7.42683H2.35048C0.648474 10.8176 0.648474 14.8125 2.35048 18.2032L6.33651 15.1123Z" fill="#FBBC04"/>
<path d="M13.074 5.56167C14.7848 5.53522 16.4383 6.17898 17.6773 7.36068L21.1034 3.93463C18.934 1.89752 16.0547 0.777546 13.074 0.81282C8.53676 0.81282 4.38758 3.37023 2.35046 7.42682L6.3365 10.5178C7.28451 7.67374 9.94334 5.56167 13.074 5.56167Z" fill="#EA4335"/>
</g>
<defs>
<clipPath id="clip0_593_1956">
<rect width="24" height="24" fill="white" transform="translate(0.833984 0.812012)"/>
</clipPath>
</defs>
</svg>
