<svg width="19" height="19" viewBox="0 0 19 19" fill="none" xmlns="http://www.w3.org/2000/svg">
<path d="M10.5 1.98947C10.5 1.43719 10.0523 0.989471 9.5 0.989471C8.94772 0.989471 8.5 1.43719 8.5 1.98947V8.98947H1.5C0.947715 8.98947 0.5 9.43719 0.5 9.98947C0.5 10.5418 0.947715 10.9895 1.5 10.9895H8.5V17.9895C8.5 18.5418 8.94772 18.9895 9.5 18.9895C10.0523 18.9895 10.5 18.5418 10.5 17.9895V10.9895H17.5C18.0523 10.9895 18.5 10.5418 18.5 9.98947C18.5 9.43719 18.0523 8.98947 17.5 8.98947H10.5V1.98947Z" fill="white"/>
</svg>
