<svg width="25" height="24" viewBox="0 0 25 24" fill="none" xmlns="http://www.w3.org/2000/svg">
<path fill-rule="evenodd" clip-rule="evenodd" d="M8.5 1C9.05228 1 9.5 1.44772 9.5 2V3H15.5V2C15.5 1.44772 15.9477 1 16.5 1C17.0523 1 17.5 1.44772 17.5 2V3H18.5C20.7091 3 22.5 4.79086 22.5 7V18C22.5 20.2091 20.7091 22 18.5 22H6.5C4.29086 22 2.5 20.2091 2.5 18V7C2.5 4.79086 4.29086 3 6.5 3H7.5V2C7.5 1.44772 7.94772 1 8.5 1ZM15.5 5C15.5 5.55228 15.9477 6 16.5 6C17.0523 6 17.5 5.55228 17.5 5H18.5C19.6046 5 20.5 5.89543 20.5 7V7.5H4.5V7C4.5 5.89543 5.39543 5 6.5 5H7.5C7.5 5.55228 7.94772 6 8.5 6C9.05228 6 9.5 5.55228 9.5 5H15.5ZM20.5 9.5H4.5V18C4.5 19.1046 5.39543 20 6.5 20H18.5C19.6046 20 20.5 19.1046 20.5 18V9.5Z" fill="#676A6C"/>
</svg>
