<svg width="20" height="20" viewBox="0 0 20 20" fill="none" xmlns="http://www.w3.org/2000/svg">
<path fill-rule="evenodd" clip-rule="evenodd" d="M10.8294 1.66732C10.8294 1.20708 10.4563 0.833984 9.99609 0.833984C9.53586 0.833984 9.16276 1.20708 9.16276 1.66732V2.50065C6.86157 2.50065 4.99609 4.36613 4.99609 6.66732C4.99609 8.9685 6.86157 10.834 9.16276 10.834V15.834C7.78205 15.834 6.66276 14.7147 6.66276 13.334C6.66276 12.8737 6.28966 12.5007 5.82943 12.5007C5.36919 12.5007 4.99609 12.8737 4.99609 13.334C4.99609 15.6352 6.86157 17.5006 9.16276 17.5006V18.334C9.16276 18.7942 9.53586 19.1673 9.99609 19.1673C10.4563 19.1673 10.8294 18.7942 10.8294 18.334V17.5006C13.1306 17.5006 14.9961 15.6352 14.9961 13.334C14.9961 11.0328 13.1306 9.16732 10.8294 9.16732V4.16732C12.2101 4.16732 13.3294 5.28661 13.3294 6.66732C13.3294 7.12755 13.7025 7.50065 14.1628 7.50065C14.623 7.50065 14.9961 7.12755 14.9961 6.66732C14.9961 4.36613 13.1306 2.50065 10.8294 2.50065V1.66732ZM9.16276 4.16732C7.78205 4.16732 6.66276 5.28661 6.66276 6.66732C6.66276 8.04803 7.78205 9.16732 9.16276 9.16732V4.16732ZM10.8294 10.834V15.834C12.2101 15.834 13.3294 14.7147 13.3294 13.334C13.3294 11.9533 12.2101 10.834 10.8294 10.834Z" fill="#667185"/>
</svg>
