<svg width="22" height="14" viewBox="0 0 22 14" fill="none" xmlns="http://www.w3.org/2000/svg">
<path d="M3.29464 9.48278C3.58029 9.95546 3.42868 10.5702 2.95601 10.8559C2.48333 11.1415 1.86859 10.9899 1.58294 10.5172C1.17684 9.84524 0.901314 9.26617 0.739301 8.89237C0.507313 8.35711 0.540973 7.75449 0.823594 7.2498C1.25486 6.47968 2.34432 4.69934 4.02335 3.09968C5.69852 1.50369 8.05564 0 10.9997 0C13.9438 0 16.301 1.50369 17.9761 3.09968C19.6552 4.69933 20.7446 6.47968 21.1759 7.2498C21.4585 7.75449 21.4922 8.35711 21.2602 8.89237C21.0982 9.26617 20.8226 9.84524 20.4165 10.5172C20.1309 10.9899 19.5161 11.1415 19.0435 10.8559C18.5708 10.5702 18.4192 9.95546 18.7048 9.48278C19.0315 8.94231 19.2581 8.47489 19.3956 8.16443C18.9898 7.44934 18.0289 5.91231 16.5966 4.5477C15.1171 3.13816 13.2297 2 10.9997 2C8.76978 2 6.8824 3.13816 5.40292 4.5477C3.9706 5.91232 3.00964 7.44933 2.60389 8.16442C2.74137 8.47489 2.96802 8.9423 3.29464 9.48278Z" fill="#34383B"/>
<path fill-rule="evenodd" clip-rule="evenodd" d="M10.9997 3.5C8.23831 3.5 5.99974 5.73858 5.99974 8.5C5.99974 11.2614 8.23831 13.5 10.9997 13.5C13.7612 13.5 15.9997 11.2614 15.9997 8.5C15.9997 5.73858 13.7612 3.5 10.9997 3.5ZM7.99974 8.5C7.99974 6.84315 9.34288 5.5 10.9997 5.5C12.6566 5.5 13.9997 6.84315 13.9997 8.5C13.9997 10.1569 12.6566 11.5 10.9997 11.5C9.34288 11.5 7.99974 10.1569 7.99974 8.5Z" fill="#34383B"/>
</svg>
