<svg width="25" height="25" viewBox="0 0 25 25" fill="none" xmlns="http://www.w3.org/2000/svg">
<path d="M4.5 6.5C4.5 5.94772 4.94772 5.5 5.5 5.5H19.5C20.0523 5.5 20.5 5.94772 20.5 6.5C20.5 7.05228 20.0523 7.5 19.5 7.5H5.5C4.94772 7.5 4.5 7.05228 4.5 6.5Z" fill="black"/>
<path d="M6.5 12.5C6.5 11.9477 6.94772 11.5 7.5 11.5H17.5C18.0523 11.5 18.5 11.9477 18.5 12.5C18.5 13.0523 18.0523 13.5 17.5 13.5H7.5C6.94772 13.5 6.5 13.0523 6.5 12.5Z" fill="black"/>
<path d="M9.5 17.5C8.94772 17.5 8.5 17.9477 8.5 18.5C8.5 19.0523 8.94772 19.5 9.5 19.5H15.5C16.0523 19.5 16.5 19.0523 16.5 18.5C16.5 17.9477 16.0523 17.5 15.5 17.5H9.5Z" fill="black"/>
</svg>
