<svg width="235" height="201" viewBox="0 0 235 201" fill="none" xmlns="http://www.w3.org/2000/svg">
<path d="M106.333 161.492C105.795 152.018 106.924 142.355 106.826 132.822C107.179 129.518 106.606 126.152 105.15 123.045C105.059 122.853 104.961 122.655 104.781 122.508C104.223 122.049 103.267 122.293 102.526 122.537C95.4187 124.872 87.0237 124.322 80.5435 121.025C79.2634 122.579 78.8961 124.486 78.5801 126.328C78.0696 129.307 77.5102 132.279 77.3732 135.27L77.3718 135.287H77.3724C77.3433 135.93 77.3268 136.573 77.3425 137.217C77.4316 140.946 78.3347 144.62 79.0402 148.296C79.5006 150.693 79.9051 153.107 79.9439 155.536C79.9755 157.524 79.6255 159.341 80.1836 161.288C81.5576 166.081 81.561 171.303 82.1421 176.2C82.7642 181.444 83.3786 186.69 83.8871 191.942C83.9073 192.151 83.9275 192.36 83.9474 192.569C84.2791 192.64 89.3467 193.57 89.3467 192.524C89.7529 182.329 90.1592 172.135 90.5655 161.94C90.7363 157.65 90.3474 143.158 91.7117 139.07C92.274 139.115 92.8361 139.16 93.3984 139.205C96.488 152.695 100.149 176.326 103.239 189.817C103.511 191.004 103.841 192.286 104.823 193.052C105.805 193.817 107.639 193.603 107.929 192.419C107.022 182.111 106.918 171.806 106.333 161.492Z" fill="#537082"/>
<path d="M97.2974 70.3912C97.2974 67.1961 94.1291 64.606 90.2212 64.606C86.313 64.606 83.145 67.1961 83.145 70.3912C83.145 70.9248 83.2407 71.439 83.4058 71.9297C83.4118 72.0553 83.4149 72.1838 83.4126 72.3181C83.3921 73.4707 83.4517 74.6311 83.7082 75.7684C84.2073 77.9808 85.5095 80.0387 87.9737 81.2974C88.7945 81.7165 89.7369 82.0359 90.718 82.0296C92.0373 82.0213 93.2477 81.4248 94.1644 80.6847C97.1923 78.2396 97.4534 74.5646 97.2396 71.0962C97.274 70.8644 97.2974 70.6301 97.2974 70.3912Z" fill="#D0C5C2"/>
<path d="M89.5464 192.615C87.9885 192.508 86.4152 192.564 84.8732 192.784C83.6846 193.541 82.3823 194.168 81.0086 194.643C80.6097 194.782 80.1898 194.915 79.8951 195.184C79.6007 195.453 79.4814 195.904 79.7564 196.188C79.997 196.435 80.4224 196.462 80.7985 196.465C83.678 196.491 86.5601 196.281 89.3933 195.84C89.563 195.813 89.7437 195.781 89.8662 195.677C89.9641 195.594 90.0102 195.476 90.0461 195.362C90.3357 194.441 90.1495 193.418 89.5464 192.615Z" fill="#3D322B"/>
<path d="M107.664 192.813C106.26 192.83 104.862 192.995 103.512 193.304C102.543 194.069 101.457 194.726 100.288 195.252C99.9484 195.405 99.5897 195.556 99.3594 195.818C99.129 196.08 99.0775 196.494 99.3574 196.727C99.6022 196.932 99.9851 196.925 100.321 196.9C102.895 196.714 105.443 196.316 107.918 195.714C108.067 195.678 108.224 195.636 108.321 195.534C108.398 195.453 108.425 195.344 108.443 195.239C108.59 194.392 108.3 193.488 107.664 192.813Z" fill="#3D322B"/>
<path d="M107.114 128.726C107.09 122.202 107.066 115.677 107.042 109.153C107.022 103.656 105.723 97.8227 104.878 92.3931C104.413 89.4053 103.864 88.3666 102.459 85.702C102.259 85.3225 102.225 85.0665 100.364 84.4887C99.9598 84.3632 98.9994 83.8367 98.504 83.9174C96.0741 84.3135 93.6005 83.4253 91.1705 83.8213C88.599 84.2404 84.2865 82.985 82.2824 84.6809C79.574 86.9728 79.3858 92.4178 78.9553 95.9798C78.3745 100.785 76.9957 105.659 76.7523 110.493C76.5384 114.735 76.4226 118.982 76.3417 123.23C76.2996 125.444 75.4619 133.143 77.5238 134.624C78.7296 135.49 81.9576 135.843 85.279 135.95C85.3986 135.954 85.5179 135.958 85.6375 135.961C85.6694 135.962 85.7012 135.962 85.7331 135.963C87.0861 135.997 88.4376 135.993 89.6624 135.968C91.4706 135.93 93.0006 135.846 93.8305 135.773C97.7049 135.432 101.532 134.67 105.327 133.828C106.002 133.679 106.746 133.479 107.115 132.884C107.379 132.457 107.116 129.232 107.114 128.726Z" fill="#D3E4EA"/>
<path d="M99.06 71.2324C98.986 70.3006 98.8274 69.4017 98.5814 68.4989C98.58 68.4937 98.5774 68.4893 98.5757 68.4844C98.4174 67.5663 98.2619 66.6476 98.1082 65.7289C98.0661 65.4774 97.9115 65.2516 97.6344 65.2005C96.5765 65.005 95.5156 64.8567 94.4491 64.7446C93.7331 64.3788 92.8197 64.2061 92.0217 64.2797C91.4483 64.2044 90.8561 64.2267 90.3624 64.2893C90.0646 64.3272 89.7355 64.3892 89.4223 64.4856C88.8697 64.4763 88.3182 64.4988 87.7653 64.5513C86.5806 63.4802 83.84 63.7905 83.0269 65.1058C82.8612 65.3738 82.7749 65.6276 82.749 65.8684C81.6733 66.1269 80.6239 66.7503 80.3002 67.8187C80.1402 68.3465 80.2082 68.9208 80.5473 69.3684C80.7378 69.6197 81.0197 69.7551 81.3052 69.8782C81.4157 70.0155 81.5512 70.1437 81.6976 70.2635C81.8194 70.467 82.0028 70.6441 82.2641 70.7817C82.3712 70.838 82.4762 70.8578 82.5745 70.8498C82.6491 70.8935 82.7205 70.9353 82.7843 70.9729C83.2612 71.2544 83.7173 70.7252 83.6136 70.2896L83.6134 70.2885C83.674 70.1627 83.6931 70.0166 83.6583 69.8793C83.8602 69.6494 84.0473 69.3852 84.2377 69.1864C84.4607 69.0812 84.6793 68.9677 84.9179 68.8678C84.9415 68.8579 84.9649 68.8502 84.9882 68.8411C85.0241 68.831 85.0574 68.8186 85.087 68.8038C85.4395 68.6849 85.7757 68.6626 86.1074 68.7008C86.1396 68.7104 86.1729 68.7206 86.2039 68.7294C86.4696 68.8052 86.7383 68.8719 87.0102 68.9312C87.1768 68.9922 87.3445 69.0603 87.515 69.132C87.6867 69.2042 87.8666 69.1839 88.0195 69.1108C89.6116 69.3459 91.2718 69.355 92.8875 69.2679C93.626 69.8977 94.9636 69.7381 95.7016 69.1355C95.7064 69.1317 95.7095 69.1273 95.7141 69.1235C95.7332 69.3899 95.6708 69.6736 95.5099 69.9312C95.4146 70.0841 95.4177 70.3558 95.539 70.4975C95.8687 70.882 96.0187 71.3063 95.9954 71.805C95.9766 72.2046 96.4358 72.3859 96.7684 72.3145C96.8743 72.2917 96.8626 72.6256 96.8227 72.9684C96.7817 72.8819 96.6875 72.8184 96.5574 72.8563C95.8211 73.07 95.0826 73.2944 94.3378 73.4908C94.2652 73.2548 94.1106 73.0604 93.8282 72.9536C93.4239 72.8003 92.8972 72.8588 92.4744 72.8596C91.6052 72.8616 90.7351 72.8728 89.8659 72.8599C89.752 72.8583 89.6808 72.9159 89.6509 72.9887C89.5279 72.9912 89.4046 72.9901 89.2814 72.9928C89.143 72.9961 89.0268 73.0887 89.026 73.2076C89.0243 73.4941 89.02 73.7797 89.0342 74.0659C88.8742 74.0562 88.7151 74.0447 88.5653 74.0414C88.2248 74.0343 87.8846 74.031 87.5441 74.0351C87.5355 73.872 87.5219 73.7135 87.5085 73.571C87.5167 73.4405 87.5338 73.3114 87.5367 73.1796C87.5392 73.0623 87.4216 72.9626 87.2898 72.9626H87.2315C87.2164 72.9602 87.203 72.9544 87.187 72.9536C86.4075 72.9176 85.6285 72.8745 84.8493 72.8336C84.3066 72.805 83.5786 72.6408 83.0664 72.808C82.3279 73.0491 82.4369 73.889 82.5292 74.5745C82.4597 74.8719 82.4458 75.1559 82.5995 75.3328C82.7217 75.4734 82.9027 75.491 83.0798 75.5206C83.6544 75.6165 84.3382 75.5327 84.9239 75.5346C85.4961 75.5363 86.7463 75.7802 87.224 75.3907C87.4441 75.2114 87.5241 74.8774 87.5458 74.5157C87.5572 74.516 87.5688 74.5176 87.5802 74.5182C87.5927 74.5888 87.6426 74.6514 87.7453 74.6698C88.1892 74.7486 88.6368 74.7731 89.0866 74.7522C89.1897 75.09 89.4405 75.3808 89.9006 75.5357C90.5107 75.7414 91.3355 75.5824 91.9835 75.611C92.35 75.6272 92.697 75.6176 93.0045 75.5063C93.2676 75.4769 93.5301 75.4421 93.7917 75.3979C93.8569 75.3869 93.9085 75.3429 93.9406 75.2905C94.0178 75.2762 94.0881 75.2312 94.1154 75.151C94.2276 74.8239 94.3885 74.3323 94.3896 73.8882C95.1487 73.6635 95.9185 73.4595 96.6829 73.2551C96.7339 73.2414 96.7678 73.2158 96.7946 73.1862C96.7607 73.4185 96.7222 73.6182 96.71 73.6635C96.5662 74.1922 96.3185 74.6459 96.0164 75.1021C95.8926 75.2888 95.9484 75.6533 96.1449 75.7848C96.2838 75.8779 96.4167 75.948 96.5443 75.9985C96.3629 76.815 95.9293 77.5914 95.4795 78.3362C94.9812 79.161 93.7194 79.8868 92.947 80.5383C92.1746 81.19 91.1192 81.6522 90.0375 81.5846C89.896 81.5759 89.7517 81.5572 89.6278 81.4976C89.3631 81.3704 89.2574 81.0952 89.1794 80.8439C89.1014 80.5926 89.0095 80.3172 88.7558 80.1744C88.5018 80.0318 88.0548 80.1639 88.0876 80.4224C88.1086 80.5893 88.3128 80.7127 88.3142 80.8807C88.3159 81.0735 88.0312 81.1903 87.8145 81.1373C87.5979 81.0842 87.443 80.9252 87.3026 80.7745C86.965 80.4125 86.6276 80.0505 86.2899 79.6883C86.1467 79.5345 85.9844 79.409 85.778 79.4938C86.0522 80.0651 86.6059 80.6113 87.006 81.1304C87.3345 81.5566 87.6756 81.9939 88.1681 82.2822C88.7561 82.6261 89.4957 82.7186 90.2078 82.7307C91.0733 82.745 91.9844 82.6398 92.6808 82.1996C93.1796 81.8845 94.4033 80.9337 94.7159 80.4757C95.767 78.9363 96.4355 77.8743 96.9933 76.1564C96.9995 76.1372 97.0055 76.118 97.0115 76.0987C97.9277 76.1185 98.4786 75.0208 98.7089 74.0834C98.8977 73.3144 98.9817 72.4806 98.8265 71.7325C98.9774 71.6408 99.0793 71.4749 99.06 71.2324ZM86.8815 74.6725C86.8659 74.7093 86.8462 74.7431 86.8255 74.7761C86.0864 74.8549 85.3131 74.9458 84.5774 74.9115C84.2101 74.8944 83.9237 74.8261 83.7173 74.6742C83.7176 74.6703 83.7196 74.6679 83.7198 74.664C83.7241 74.2446 83.7281 73.8256 83.7324 73.4062C84.2201 73.4048 84.7078 73.4034 85.1952 73.4021C85.7712 73.4188 86.3471 73.4347 86.9231 73.4542C86.9467 73.6613 86.9738 73.8994 86.9727 74.1285C86.9502 74.3097 86.9163 74.491 86.8815 74.6725ZM93.4467 74.2449C93.3479 74.6412 93.2158 74.9263 92.8337 75.0894C92.182 75.1608 91.5249 75.1803 90.8675 75.1271C90.3203 75.0828 90.1329 75.0834 90.0834 74.5907C90.0751 74.5078 90.0714 74.4226 90.0683 74.3369C90.0988 74.274 90.0973 74.1988 90.0652 74.1367C90.0654 73.9266 90.076 73.7154 90.0922 73.5089C91.1619 73.5056 92.2307 73.5147 93.3 73.519C93.3778 73.569 93.4304 73.6306 93.4606 73.7042C93.462 73.8552 93.4637 74.006 93.4652 74.157C93.4589 74.1864 93.4543 74.2136 93.4467 74.2449Z" fill="#333333"/>
<path d="M108.183 116.035C108.126 112.757 108.008 109.48 107.822 106.206C107.578 101.93 107.434 97.5366 106.701 93.3077C106.239 90.6418 105.282 87.8127 102.952 86.244C102.371 84.9716 101.529 83.8942 100.25 83.2941C99.8575 82.6765 99.0973 82.5954 98.4954 82.8854C98.0211 82.6254 97.3916 82.591 96.8765 83.0167C94.8073 84.7264 93.6511 87.1185 92.9291 89.6091C92.1447 92.3152 91.682 95.2335 91.5562 98.0373C91.3538 102.542 92.8231 107.035 95.5168 110.694C95.5418 111.22 95.5632 111.747 95.5768 112.274C95.8319 122.029 92.8582 131.418 89.8958 140.636C89.5629 141.672 90.7983 142.52 91.7498 142.235C92.1 142.13 92.4522 142.035 92.8038 141.937C92.931 141.974 93.0654 142.004 93.2146 142.013C93.5053 142.03 93.796 142.042 94.0867 142.05C94.5761 142.37 95.2241 142.426 95.6984 142.048C98.0874 141.974 100.453 141.588 102.732 140.9L104.659 140.675C104.875 140.65 105.09 140.581 105.284 140.477C105.968 140.562 106.729 140.221 106.929 139.428C108.888 131.659 109.054 123.824 108.183 116.035Z" fill="#E0C74E"/>
<path d="M83.3112 83.2903C79.8434 87.472 78.0845 92.4721 77.2098 97.6559C75.0213 105.94 74.865 114.761 75.2291 123.359C75.224 123.415 75.2214 123.472 75.2237 123.533L75.4714 130.585C75.5477 132.759 75.4686 135.006 75.9511 137.142C76.6854 140.391 80.2887 143.506 83.7411 141.395C84.2581 141.079 84.4193 140.491 84.2775 139.946C80.6731 126.085 80.0524 111.53 82.4642 97.429C83.1449 93.4498 84.0691 89.5142 85.2136 85.6358C85.2873 85.3861 85.2833 85.1653 85.225 84.9755C86.2599 83.7237 84.3535 82.0336 83.3112 83.2903Z" fill="#E0C74E"/>
<path d="M82.8069 94.5777C82.0989 93.4588 81.2675 92.4526 80.4325 91.4238C79.688 90.5067 79.6111 89.2591 78.5932 88.5368C77.5931 87.8271 76.3036 87.8219 75.1187 87.9271C74.8957 87.9468 74.6961 88.0226 74.5307 88.1363C74.418 88.1893 74.3141 88.2575 74.2247 88.3396C73.8651 88.4159 73.5015 88.531 73.1334 88.6733C72.3965 88.9586 72.1787 89.6584 72.5235 90.32C74.1293 93.3984 75.8 96.4653 78.3783 98.9038C78.7208 99.2279 79.1686 99.2471 79.5493 99.0925C79.7628 99.1705 79.9977 99.2158 80.2611 99.2158C80.9313 99.2163 81.6217 99.0933 82.2819 98.987C82.961 98.8777 83.5905 98.7561 83.9421 98.1175C84.5656 96.9857 83.3977 95.5109 82.8069 94.5777Z" fill="#909294"/>
<path d="M84.6689 96.9046C82.5985 94.0173 80.5554 91.1116 78.4998 88.2147C78.2282 87.8319 77.7752 87.8418 77.4652 88.0428C76.3861 87.9953 75.3068 87.984 74.2269 88.0228C73.6444 88.0436 73.0052 88.0258 72.7088 88.5849C72.6194 88.7538 72.7598 88.9271 72.9423 88.9296C74.3035 88.9475 75.6647 88.9639 77.0259 88.9812C77.0862 89.0831 77.2109 89.0974 77.3134 89.0518C79.3514 91.9254 81.4018 94.7912 83.425 97.6746C83.9591 98.4354 85.2101 97.6593 84.6689 96.9046Z" fill="#606060"/>
<path d="M95.9465 107.164C94.3344 106.1 92.6788 105.097 90.9788 104.171C89.725 102.862 88.2735 101.734 86.6564 100.819C86.1365 100.524 85.6545 100.625 85.316 100.912C85.2365 100.924 85.1582 100.941 85.0828 100.968C84.83 100.806 84.5771 100.679 84.3383 100.615C84.3371 100.615 84.3363 100.616 84.3354 100.616C84.1769 100.689 84.0225 100.766 83.8731 100.856C83.8517 100.869 83.7504 100.936 83.6735 100.986C83.5977 101.046 83.4451 101.162 83.446 101.161C83.3782 101.217 83.3113 101.273 83.2444 101.33C83.2248 101.917 83.5815 102.727 83.9565 103.385L84.9587 105.145C84.9948 105.222 85.0353 105.3 85.0854 105.377C85.0993 105.398 85.1135 105.42 85.1278 105.442L86.723 108.244C86.8292 108.282 86.9365 108.333 87.0444 108.396C87.3875 108.9 87.7431 109.398 88.1158 109.878C88.681 111.446 89.9394 112.736 91.5366 113.615C93.5737 114.736 97.2911 116.362 98.791 113.706C100.253 111.116 98.0479 108.55 95.9465 107.164Z" fill="#E0C74E"/>
<path d="M102.637 90.0412C102.334 89.4788 101.592 89.2637 101.006 89.4601C100.542 89.4453 100.037 89.5381 99.49 89.771C96.3622 91.1022 95.6496 94.9114 94.9833 97.7712C94.0392 101.824 93.4177 105.993 94.0825 110.134C94.1597 110.615 94.4552 110.924 94.8188 111.074C94.7934 111.533 94.7872 111.994 94.7983 112.457C94.8165 113.218 95.3853 113.556 95.9844 113.536C96.2113 113.637 96.4203 113.685 96.6133 113.69C96.8604 113.887 97.179 113.996 97.5409 113.954C101.418 113.504 101.138 108.681 101.755 105.918C102.161 104.1 102.731 102.348 103.416 100.611C104.058 98.9807 104.724 97.3148 104.826 95.5563C104.929 93.7906 104.19 91.192 102.637 90.0412Z" fill="#E0C74E"/>
<path d="M83.3525 101.658C83.4729 101.631 83.5922 101.591 83.7093 101.531C84.236 101.259 84.4512 100.735 84.5477 100.196C84.6875 99.4176 84.6041 98.6148 84.5509 97.8219C84.222 97.3072 83.8354 96.842 83.2953 96.5146C83.1979 96.6278 83.1008 96.7409 83.0037 96.8541L83.2919 97.5723C82.8332 97.0867 82.3011 96.6588 81.7211 96.3092C81.158 95.9697 80.3796 95.7176 79.9602 96.101C79.5465 96.4795 79.7939 97.1864 80.1048 97.7252C80.943 99.1772 82.0901 100.459 83.3525 101.658Z" fill="#D0C5C2"/>
<mask id="mask0_47_560" style="mask-type:luminance" maskUnits="userSpaceOnUse" x="30" y="20" width="125" height="108">
<path d="M92.4431 127.855C126.804 127.855 154.659 103.877 154.659 74.2984C154.659 44.7201 126.804 20.7422 92.4431 20.7422C58.0824 20.7422 30.2275 44.7201 30.2275 74.2984C30.2275 103.877 58.0824 127.855 92.4431 127.855Z" fill="white"/>
</mask>
<g mask="url(#mask0_47_560)">
<path d="M112.604 165.657C111.856 152.465 113.428 139.01 113.291 125.736C113.783 121.135 112.985 116.449 110.957 112.123C110.831 111.854 110.694 111.58 110.444 111.374C109.666 110.736 108.335 111.075 107.303 111.414C97.4064 114.666 85.7171 113.9 76.6941 109.309C74.9118 111.473 74.4002 114.128 73.9603 116.694C73.2494 120.841 72.4704 124.98 72.2797 129.145C72.2791 129.153 72.278 129.161 72.278 129.161L72.2785 129.169C72.2381 130.063 72.2153 130.958 72.2367 131.856C72.3608 137.048 73.6181 142.164 74.6006 147.281C75.2415 150.62 75.8052 153.981 75.8588 157.363C75.9026 160.131 75.4157 162.662 76.1924 165.372C78.1054 172.046 78.1105 179.317 78.9194 186.136C79.7858 193.438 80.641 200.742 81.3494 208.055C81.3776 208.346 81.4055 208.638 81.4334 208.929C81.8955 209.027 88.9514 210.322 88.9514 208.865C89.5171 194.67 90.0828 180.475 90.6488 166.28C90.8869 160.307 90.3453 140.126 92.2446 134.435C93.0276 134.498 93.8103 134.56 94.5932 134.623C98.8955 153.407 103.993 186.311 108.295 205.096C108.674 206.75 109.134 208.534 110.501 209.6C111.869 210.666 114.423 210.367 114.827 208.719C113.564 194.367 113.419 180.018 112.604 165.657Z" fill="#537082"/>
<path d="M100.024 38.8059C100.024 34.3568 95.6125 30.7502 90.1706 30.7502C84.729 30.7502 80.3174 34.3571 80.3174 38.8059C80.3174 39.5488 80.4503 40.2651 80.6807 40.9481C80.6892 41.1228 80.6935 41.3019 80.6901 41.4889C80.6616 43.0936 80.7444 44.7096 81.1015 46.2929C81.7964 49.3735 83.6098 52.2391 87.0411 53.9915C88.1839 54.5751 89.4964 55.0198 90.8622 55.011C92.6991 54.9995 94.3846 54.169 95.6609 53.1382C99.8769 49.7335 100.24 44.6165 99.943 39.7872C99.9914 39.4648 100.024 39.1385 100.024 38.8059Z" fill="#D0C5C2"/>
<path d="M113.693 120.033C113.66 110.949 113.626 101.864 113.593 92.7791C113.565 85.1241 111.757 77.0022 110.58 69.442C109.932 65.2818 109.168 63.8353 107.212 60.1254C106.933 59.5968 106.886 59.2406 104.295 58.4361C103.732 58.2612 102.395 57.5285 101.705 57.6408C98.3209 58.1923 94.8771 56.9556 91.4933 57.507C87.9128 58.0904 81.9077 56.3428 79.1173 58.7042C75.346 61.8955 75.0841 69.4772 74.4845 74.4369C73.6756 81.1273 71.7558 87.9139 71.4168 94.6453C71.1192 100.553 70.9578 106.467 70.8451 112.381C70.7861 115.464 69.62 126.183 72.491 128.246C74.1699 129.452 78.6646 129.944 83.2894 130.093C83.456 130.098 83.622 130.103 83.7888 130.108C83.8332 130.109 83.8773 130.11 83.9218 130.111C85.8054 130.159 87.6873 130.153 89.393 130.117C91.911 130.064 94.0412 129.947 95.1968 129.845C100.592 129.371 105.92 128.31 111.205 127.138C112.144 126.93 113.18 126.651 113.694 125.823C114.063 125.228 113.696 120.738 113.693 120.033Z" fill="#D3E4EA"/>
<path d="M102.479 39.9771C102.376 38.6797 102.155 37.4279 101.812 36.1708C101.81 36.1637 101.807 36.1577 101.804 36.1505C101.584 34.8721 101.368 33.5931 101.154 32.3135C101.095 31.9634 100.88 31.6489 100.494 31.5778C99.0208 31.3056 97.5438 31.0991 96.0584 30.9431C95.0614 30.4336 93.7896 30.1931 92.6784 30.2955C91.88 30.1906 91.0552 30.2216 90.3679 30.309C89.9534 30.3617 89.495 30.4482 89.0591 30.5822C88.2896 30.5693 87.522 30.6006 86.7519 30.6737C85.1022 29.1824 81.2863 29.6144 80.154 31.4457C79.9234 31.8186 79.8029 32.1724 79.7671 32.5074C78.2695 32.8675 76.8081 33.7353 76.3574 35.2228C76.1348 35.9577 76.2293 36.7575 76.7016 37.3809C76.9667 37.7308 77.3593 37.9192 77.7567 38.0906C77.9105 38.2817 78.0992 38.4605 78.3031 38.6272C78.4728 38.9104 78.7282 39.1573 79.092 39.349C79.2409 39.4275 79.3876 39.455 79.5242 39.4437C79.6278 39.5047 79.7275 39.5626 79.8166 39.6151C80.4806 40.0073 81.1157 39.2704 80.9717 38.6635L80.9714 38.6621C81.0557 38.4869 81.0827 38.2834 81.0337 38.0922C81.315 37.772 81.5756 37.4042 81.8406 37.1271C82.1512 36.9807 82.4556 36.8228 82.7878 36.6833C82.8209 36.6696 82.8533 36.6589 82.8861 36.6462C82.9362 36.632 82.9823 36.6149 83.0239 36.5941C83.5144 36.4287 83.9831 36.3974 84.4446 36.4507C84.4893 36.4639 84.5357 36.4782 84.5787 36.4905C84.9485 36.596 85.3229 36.6891 85.7016 36.7717C85.9336 36.8566 86.1671 36.9514 86.4045 37.0513C86.6434 37.1518 86.8939 37.1236 87.1069 37.0219C89.3236 37.3493 91.6355 37.3619 93.8852 37.2406C94.9133 38.1172 96.7762 37.895 97.8034 37.056C97.81 37.0505 97.8145 37.0445 97.8211 37.039C97.8475 37.41 97.7607 37.8049 97.5369 38.1639C97.404 38.377 97.4082 38.7552 97.5774 38.9524C98.0366 39.4879 98.2453 40.0787 98.2128 40.7732C98.1866 41.3296 98.8261 41.582 99.2893 41.4826C99.4368 41.451 99.4206 41.916 99.3653 42.3931C99.3084 42.2725 99.1771 42.1843 98.9958 42.2368C97.9705 42.5342 96.9419 42.8468 95.905 43.1203C95.8036 42.7918 95.5887 42.521 95.1952 42.3722C94.632 42.1588 93.8986 42.2404 93.3101 42.2417C92.0996 42.2445 90.8881 42.2599 89.6778 42.242C89.5195 42.2398 89.4201 42.32 89.3786 42.4216C89.2072 42.4252 89.0355 42.4235 88.8641 42.4274C88.6714 42.4318 88.5096 42.5606 88.5085 42.7265C88.5062 43.1255 88.5003 43.5232 88.5199 43.9217C88.297 43.9082 88.0758 43.892 87.8671 43.8879C87.3927 43.878 86.9193 43.8734 86.4449 43.8791C86.4333 43.6517 86.4139 43.4312 86.3954 43.2329C86.4071 43.0511 86.4307 42.8715 86.4344 42.688C86.4378 42.5246 86.2741 42.3859 86.0908 42.3859H86.0096C85.9885 42.3823 85.97 42.3744 85.9475 42.3733C84.8622 42.3233 83.7775 42.2631 82.6925 42.206C81.9368 42.1662 80.9233 41.9374 80.2101 42.1706C79.1817 42.5065 79.3335 43.6759 79.4619 44.6305C79.3651 45.045 79.3457 45.4402 79.5598 45.6865C79.7298 45.8821 79.9823 45.9068 80.2289 45.9482C81.0289 46.082 81.9813 45.9653 82.7967 45.9677C83.5936 45.9699 85.334 46.3094 85.9997 45.7673C86.306 45.5176 86.4176 45.0527 86.4475 44.549C86.4632 44.5492 86.4797 44.5517 86.4956 44.5525C86.5133 44.6506 86.5822 44.7382 86.7257 44.7635C87.3438 44.873 87.967 44.9071 88.5931 44.8783C88.7366 45.3484 89.0856 45.7535 89.7265 45.9694C90.5761 46.2558 91.7246 46.0345 92.6268 46.0743C93.137 46.0968 93.6202 46.0836 94.0484 45.9285C94.4148 45.8875 94.7804 45.8389 95.1448 45.7774C95.2356 45.762 95.3071 45.7008 95.3521 45.628C95.4597 45.6082 95.5573 45.5454 95.5958 45.4338C95.7521 44.9782 95.9759 44.2941 95.9776 43.6756C97.0347 43.3628 98.1063 43.0788 99.1709 42.7943C99.2418 42.7753 99.289 42.7394 99.326 42.6984C99.2791 43.022 99.2255 43.3002 99.2085 43.3631C99.0083 44.0994 98.6635 44.731 98.2427 45.3663C98.0705 45.6264 98.1479 46.1336 98.4215 46.3171C98.6148 46.4467 98.8002 46.5442 98.9776 46.6145C98.725 47.7512 98.1212 48.8325 97.4948 49.8695C96.8012 51.0178 95.0443 52.0285 93.9684 52.9359C92.8927 53.8433 91.4234 54.487 89.9172 54.3931C89.7202 54.3807 89.5192 54.3547 89.347 54.272C88.9783 54.0948 88.8314 53.7117 88.7223 53.3618C88.6136 53.0119 88.4857 52.6283 88.1321 52.4297C87.7785 52.2311 87.1561 52.4152 87.2017 52.7749C87.231 53.0073 87.5152 53.1792 87.5171 53.4129C87.5194 53.6815 87.1231 53.8438 86.8213 53.7699C86.5195 53.6961 86.3043 53.4747 86.1084 53.2646C85.6384 52.7604 85.1683 52.2564 84.6982 51.7519C84.4987 51.538 84.2729 51.363 83.9856 51.4811C84.3671 52.2765 85.1384 53.0372 85.6953 53.7598C86.1528 54.3533 86.6274 54.9622 87.3133 55.3634C88.1321 55.8424 89.1619 55.9712 90.1536 55.9877C91.3587 56.0077 92.6274 55.861 93.5971 55.2483C94.2915 54.8095 95.9955 53.4857 96.4311 52.8477C97.8945 50.7044 98.8255 49.2255 99.6022 46.8337C99.6107 46.807 99.619 46.7801 99.6276 46.7535C100.903 46.7812 101.67 45.2526 101.991 43.9472C102.254 42.8764 102.37 41.7155 102.155 40.6735C102.364 40.5461 102.505 40.3149 102.479 39.9771ZM85.5213 44.7676C85.4994 44.8189 85.4721 44.8662 85.4433 44.9118C84.4141 45.0213 83.3376 45.1479 82.3132 45.1002C81.8019 45.0763 81.403 44.9812 81.1155 44.7698C81.1157 44.7646 81.1189 44.761 81.1189 44.7558C81.1249 44.1719 81.1306 43.5883 81.1365 43.0044C81.8156 43.0025 82.4946 43.0005 83.1736 42.9986C83.9757 43.0217 84.7777 43.0439 85.5794 43.0711C85.6124 43.3595 85.6497 43.691 85.6483 44.0098C85.6164 44.2622 85.5694 44.5149 85.5213 44.7676ZM94.6625 44.1719C94.525 44.7239 94.3411 45.1205 93.8092 45.3479C92.9019 45.4473 91.9868 45.4742 91.0715 45.4001C90.3096 45.3383 90.0488 45.3394 89.9796 44.6533C89.9679 44.538 89.9631 44.4191 89.9585 44.3001C90.0012 44.2125 89.999 44.1076 89.954 44.0214C89.9545 43.7289 89.9688 43.435 89.9916 43.1469C91.4809 43.1425 92.9693 43.1549 94.4584 43.1612C94.5666 43.231 94.64 43.3164 94.6819 43.4191C94.6839 43.6295 94.6861 43.8396 94.6881 44.0497C94.6796 44.0906 94.6733 44.1285 94.6625 44.1719Z" fill="#333333"/>
<path d="M115.182 102.361C115.102 97.7971 114.937 93.2342 114.678 88.6755C114.34 82.7213 114.138 76.6038 113.118 70.7155C112.475 67.0032 111.143 63.0641 107.898 60.8796C107.09 59.1079 105.917 57.6076 104.136 56.7718C103.589 55.9117 102.531 55.7991 101.693 56.2028C101.032 55.8408 100.156 55.7928 99.4385 56.3854C96.557 58.766 94.9472 62.0968 93.9419 65.5647C92.8498 69.3324 92.2055 73.3963 92.0301 77.3003C91.7482 83.5733 93.7941 89.829 97.5449 94.9238C97.5796 95.6568 97.6093 96.3898 97.6286 97.1234C97.9836 110.706 93.8428 123.78 89.7182 136.616C89.255 138.058 90.9747 139.239 92.3 138.842C92.7877 138.696 93.278 138.563 93.7677 138.427C93.945 138.479 94.1318 138.52 94.3397 138.533C94.7445 138.557 95.1494 138.573 95.5539 138.584C96.2353 139.03 97.1378 139.108 97.798 138.581C101.125 138.478 104.418 137.94 107.592 136.984L110.274 136.67C110.575 136.635 110.875 136.539 111.145 136.393C112.097 136.513 113.157 136.037 113.436 134.933C116.163 124.117 116.394 113.208 115.182 102.361Z" fill="#E0C74E"/>
<path d="M80.5489 56.7669C75.7205 62.5895 73.2709 69.5516 72.0532 76.7697C69.006 88.305 68.7882 100.587 69.2949 112.559C69.2881 112.637 69.2844 112.717 69.2872 112.801L69.632 122.621C69.7382 125.648 69.628 128.777 70.3 131.751C71.3221 136.275 76.3395 140.613 81.1468 137.674C81.8668 137.234 82.0912 136.415 81.8939 135.656C76.875 116.355 76.0107 96.088 79.3691 76.4541C80.3169 70.9133 81.6038 65.4334 83.1976 60.0327C83.3001 59.685 83.2947 59.3777 83.2132 59.1132C84.6547 57.3703 82.0001 55.0169 80.5489 56.7669Z" fill="#E0C74E"/>
<path d="M79.8463 72.484C78.8604 70.926 77.703 69.525 76.54 68.0923C75.5033 66.8155 75.396 65.0781 73.979 64.0721C72.5865 63.0837 70.7908 63.0765 69.1412 63.2232C68.8306 63.2509 68.553 63.3561 68.3227 63.5146C68.1655 63.5882 68.0209 63.6832 67.8965 63.7975C67.3957 63.904 66.8895 64.0639 66.3773 64.2621C65.3512 64.6595 65.048 65.634 65.5283 66.5548C67.7641 70.8414 70.0907 75.1117 73.6806 78.5071C74.1575 78.9581 74.781 78.985 75.3115 78.7699C75.6087 78.8787 75.9358 78.9413 76.3025 78.9416C77.2358 78.9424 78.197 78.771 79.1163 78.623C80.0618 78.4706 80.9384 78.3011 81.4279 77.4124C82.2951 75.8371 80.6688 73.7836 79.8463 72.484Z" fill="#909294"/>
<path d="M82.4414 75.7235C79.5584 71.7033 76.7136 67.6571 73.8514 63.6234C73.473 63.0904 72.8424 63.1041 72.4108 63.384C70.9083 63.3178 69.4054 63.3021 67.9018 63.3559C67.0907 63.3851 66.2007 63.3603 65.7881 64.1387C65.6634 64.3737 65.859 64.6154 66.1133 64.6187C68.0086 64.6437 69.9039 64.6662 71.7995 64.6907C71.8835 64.8324 72.0571 64.8522 72.1998 64.789C75.0375 68.7902 77.8926 72.7807 80.7098 76.7956C81.4528 77.8552 83.1947 76.7742 82.4414 75.7235Z" fill="#606060"/>
<path d="M98.1412 90.0092C95.8966 88.5281 93.5916 87.1316 91.2239 85.8421C89.4781 84.0194 87.4569 82.4482 85.2052 81.1741C84.4811 80.7646 83.8101 80.9052 83.3386 81.3046C83.2281 81.321 83.1191 81.3449 83.0137 81.3823C82.6618 81.1571 82.3099 80.9805 81.9771 80.8901C81.9757 80.8907 81.9743 80.8918 81.9728 80.8923C81.7519 80.9939 81.537 81.1011 81.3291 81.2257C81.2995 81.2436 81.1583 81.3367 81.0512 81.4065C80.9459 81.4899 80.7332 81.6514 80.7346 81.6503C80.6404 81.7278 80.5473 81.8069 80.4542 81.8857C80.4269 82.7036 80.9234 83.831 81.4456 84.7477L82.8409 87.1986C82.8913 87.306 82.9474 87.4133 83.0174 87.521C83.0371 87.5512 83.0567 87.582 83.0764 87.6122L85.2977 91.514C85.4455 91.5667 85.5949 91.6373 85.7452 91.7255C86.223 92.4277 86.7181 93.1206 87.2368 93.7894C88.0238 95.9725 89.7762 97.7691 92 98.9924C94.8366 100.553 100.013 102.818 102.101 99.1193C104.138 95.5124 101.067 91.9399 98.1412 90.0092Z" fill="#E0C74E"/>
<path d="M107.459 66.1668C107.036 65.3836 106.003 65.0845 105.187 65.3575C104.541 65.3366 103.838 65.466 103.077 65.7903C98.7217 67.6438 97.7292 72.9479 96.8016 76.9299C95.4868 82.5735 94.6219 88.378 95.5472 94.1437C95.6548 94.8141 96.0659 95.2442 96.5724 95.4537C96.5374 96.0926 96.5285 96.7338 96.5439 97.3792C96.5693 98.4385 97.3616 98.9087 98.1955 98.881C98.5113 99.0213 98.8025 99.0883 99.0713 99.0955C99.4155 99.3701 99.8588 99.5217 100.363 99.4632C105.762 98.8367 105.371 92.1207 106.231 88.2739C106.796 85.7425 107.589 83.3018 108.543 80.8836C109.438 78.614 110.364 76.2941 110.506 73.8455C110.649 71.3877 109.62 67.7691 107.459 66.1668Z" fill="#E0C74E"/>
<path d="M80.6072 82.3418C80.7749 82.305 80.9409 82.2489 81.1038 82.1649C81.8375 81.787 82.137 81.0567 82.2713 80.3067C82.4658 79.2224 82.3496 78.1046 82.2756 77.0009C81.8175 76.2841 81.2794 75.6365 80.5272 75.1806C80.392 75.3379 80.2565 75.4956 80.1212 75.6529L80.5227 76.6529C79.8841 75.977 79.143 75.3808 78.3355 74.8941C77.5514 74.4215 76.4673 74.0705 75.8836 74.6044C75.3076 75.1314 75.6521 76.1157 76.0849 76.866C77.2522 78.8885 78.8494 80.6731 80.6072 82.3418Z" fill="#D0C5C2"/>
</g>
<path opacity="0.22" d="M216.657 198.566C219.528 197.776 220.459 196.734 218.257 195.367C216.487 194.268 210.919 194.655 208.414 194.525C196.69 193.917 184.948 193.364 173.15 193.04C149.42 192.39 125.544 192.498 101.737 193.367C98.2029 193.496 72.7051 193.639 76.373 197.728C78.2379 199.806 88.4852 198.835 92.2126 198.935C100.36 199.153 108.507 199.371 116.655 199.59C133.417 200.038 150.976 200.509 165.544 200.898C169.168 200.995 206.08 201.48 216.657 198.566Z" fill="url(#paint0_linear_47_560)"/>
<path d="M210.964 116.313C206.744 113.448 202.08 111.354 197.496 109.11C193.502 107.154 189.901 104.788 185.763 102.909C176.343 98.6305 166.87 93.9792 157.729 89.4515C157.115 89.1475 156.481 88.9198 155.838 88.76C157.111 89.0767 158.044 70.5814 157.937 68.9231C157.511 62.3716 155.987 55.8924 153.446 49.8031C150.84 43.5592 147.168 37.7357 142.606 32.6417C140.328 30.0983 137.751 28.0349 135.206 25.8057C132.447 23.3892 130.281 20.6054 126.71 19.1949C114.504 14.3739 102.723 10.6937 89.3165 11.7747C76.4431 12.8128 63.964 17.6105 54.0097 25.5761C44.9662 32.8128 39.8206 41.4508 35.2989 51.6951C34.8803 52.6431 34.4618 53.5914 34.0433 54.5395C29.1278 65.6761 30.4021 80.4678 34.2625 91.8066C38.3521 103.819 46.3069 114.471 56.8647 121.97C62.57 126.023 68.8863 130.796 76.1905 131.571C83.148 132.309 89.5608 134.145 96.695 133.908C110.451 133.452 123.915 128.604 134.604 120.237C137.978 117.596 141.066 114.618 143.806 111.365C144.316 111.776 144.877 112.14 145.491 112.444C147.431 112.444 151.596 115.321 153.376 116.229C156.387 117.766 159.23 119.669 162.197 121.293C169.571 125.332 177.409 128.252 184.859 131.942C188.277 133.635 191.695 135.328 195.113 137.02C196.079 137.499 197.089 137.935 198.028 138.462C201.564 140.448 205.356 140.741 209.477 140.792C210.823 140.808 212.217 140.761 213.432 140.201C214.551 139.687 215.418 138.783 216.242 137.89C218.173 135.796 220.095 133.493 220.577 130.73C221.1 127.733 219.798 124.654 217.798 122.306C215.811 119.974 213.485 118.025 210.964 116.313ZM139.825 95.111C126.67 119.828 95.233 129.577 69.6103 116.887C43.9876 104.196 33.8807 73.8719 47.0363 49.1552C60.1919 24.4386 91.6283 14.6894 117.251 27.3797C142.874 40.0702 152.981 70.3944 139.825 95.111Z" fill="#456184"/>
<path opacity="0.18" d="M130.306 107.705C150.672 88.0594 150.672 56.2067 130.306 36.5606C109.939 16.9145 76.9186 16.9145 56.5521 36.5606C36.1856 56.2067 36.1856 88.0594 56.5521 107.705C76.9186 127.352 109.939 127.352 130.306 107.705Z" fill="#B4FFFF"/>
<g opacity="0.9">
<path d="M114.308 102.514C113.904 102.998 113.477 103.463 113.019 103.899C112.798 104.109 112.568 104.307 112.341 104.508C112.187 104.619 112.037 104.738 111.882 104.849C111.369 105.217 110.835 105.559 110.286 105.874C110.01 106.032 109.73 106.184 109.447 106.33C109.305 106.403 109.162 106.474 109.019 106.545C108.991 106.558 108.962 106.574 108.932 106.592C108.934 106.59 108.936 106.589 108.939 106.587C108.936 106.589 108.932 106.591 108.929 106.594C108.879 106.624 108.827 106.658 108.781 106.69C108.311 106.965 107.618 107.12 107.131 107.287C106.438 107.525 105.734 107.733 105.023 107.916C104.706 107.997 104.387 108.073 104.068 108.143C103.889 108.183 103.244 108.213 103.11 108.336C102.992 108.355 102.873 108.374 102.754 108.392C102.39 108.447 102.024 108.496 101.659 108.539C100.339 108.695 99.0103 108.777 97.6807 108.794C97.0768 108.801 96.4729 108.794 95.8696 108.774C95.5681 108.764 95.2672 108.751 94.966 108.734C94.901 108.73 94.7718 108.737 94.6926 108.742C94.7274 108.739 94.7761 108.736 94.8455 108.73C95.3882 108.687 94.6371 108.712 94.5005 108.7C91.9885 108.475 89.4995 108.019 87.0738 107.351C86.4939 107.192 85.9173 107.021 85.3451 106.838C85.2454 106.806 85.146 106.773 85.0467 106.741C84.7292 106.618 84.4018 106.514 84.0832 106.394C82.8869 105.944 81.7116 105.442 80.5608 104.893C79.4425 104.36 78.3475 103.781 77.279 103.159C76.7283 102.838 76.1848 102.507 75.6487 102.164C75.5818 102.121 75.5152 102.078 75.4486 102.035C75.4543 102.042 75.4597 102.047 75.4656 102.054C75.4591 102.046 75.4503 102.039 75.4432 102.031C75.3859 101.994 75.329 101.957 75.2715 101.92C75.1707 101.855 75.1226 101.802 75.1163 101.777C74.9486 101.671 74.767 101.574 74.6354 101.48C72.5938 100.035 70.6771 98.4246 68.9187 96.6669C68.4994 96.2478 68.0888 95.8204 67.6877 95.3849C67.4983 95.1794 67.313 94.971 67.1274 94.7625C67.0192 94.6324 66.9087 94.5038 66.8008 94.3737C66.0016 93.408 65.2474 92.4081 64.5425 91.3765C63.7553 90.2244 63.031 89.0322 62.3744 87.8062C62.219 87.5156 62.0675 87.2232 61.9197 86.929C61.8628 86.8156 61.686 86.3707 61.8639 86.8194C62.057 87.3064 61.8161 86.7112 61.7683 86.6074C61.4614 85.9425 61.1744 85.2691 60.9084 84.588C60.3809 83.2376 59.9197 81.854 59.5922 80.4448C59.588 80.4261 59.5803 80.394 59.5715 80.3564C59.5521 80.249 59.496 79.9694 59.4875 79.912C59.4248 79.4981 59.3779 79.0815 59.3531 78.664C59.348 78.5786 59.3038 78.1326 59.2973 77.7978C59.3018 77.7712 59.3141 77.6918 59.3394 77.5254C59.3773 77.2771 59.4132 77.0302 59.4601 76.7831C59.7839 75.083 58.6604 73.1611 56.8015 72.8692C55.0033 72.5868 53.0912 73.611 52.7441 75.4338C52.1038 78.7981 52.8085 82.1778 53.9222 85.3765C54.841 88.0152 56.067 90.579 57.5116 92.9875C60.3106 97.6542 64.1055 101.848 68.4624 105.22C77.3758 112.117 88.8404 116.12 100.331 115.307C107.356 114.81 114.798 112.448 119.359 106.993C120.482 105.649 120.636 103.517 119.155 102.318C117.807 101.227 115.513 101.074 114.308 102.514ZM59.3425 77.4164C59.3488 77.4136 59.3064 77.7149 59.2967 77.7915C59.2927 77.5921 59.3027 77.4334 59.3425 77.4164Z" fill="white"/>
</g>
<path d="M75.4472 102.035C75.2319 101.781 75.1038 101.731 75.1149 101.777C75.2416 101.856 75.3589 101.941 75.4415 102.031C75.4435 102.032 75.4452 102.033 75.4472 102.035Z" fill="#456184"/>
<g opacity="0.9">
<path d="M125.42 96.2574C123.729 95.5101 121.681 96.0396 120.803 97.689C119.984 99.2284 120.602 101.398 122.287 102.143C123.978 102.89 126.026 102.36 126.904 100.711C127.724 99.1716 127.105 97.0022 125.42 96.2574Z" fill="white"/>
</g>
<path d="M146.898 23.6372C144.336 22.7395 142.892 26.5866 145.464 27.488C157.367 31.6586 165.704 43.3371 165.346 55.5785C165.27 58.198 169.495 58.5666 169.572 55.9251C169.983 41.8507 160.646 28.4541 146.898 23.6372Z" fill="#456184"/>
<path d="M154.444 13.5825C151.999 12.4306 150.577 16.2868 153.011 17.4332C167.692 24.348 177.507 39.6841 177.419 55.4278C177.405 58.0418 181.631 58.4155 181.645 55.7743C181.744 38.033 170.957 21.3599 154.444 13.5825Z" fill="#456184"/>
<path d="M11.8694 76.0681C10.0994 85.3075 14.2439 94.9739 22.0842 100.485C24.2904 102.036 26.7335 98.6931 24.5267 97.1417C17.8033 92.4154 14.5907 84.2688 16.0956 76.4147C16.5905 73.829 12.3622 73.4947 11.8694 76.0681Z" fill="#456184"/>
<path d="M0.873826 82.5887C0.541285 90.0764 3.71807 97.0803 9.52187 102.029C11.5635 103.77 13.9901 100.412 11.9644 98.685C7.33929 94.7414 4.8367 88.8617 5.09977 82.9353C5.21593 80.3138 0.990841 79.9483 0.873826 82.5887Z" fill="#456184"/>
<path d="M176.508 98.3148C176.359 98.3107 176.218 98.3212 176.09 98.3483C172.886 99.027 171.814 105.906 170.555 108.271C168.326 112.456 166.042 116.613 163.731 120.756C162.616 122.756 163.754 122.884 165.384 123.65C166.627 124.234 167.869 124.819 169.111 125.404C172.723 127.104 176.335 128.803 179.947 130.503C188.198 134.385 196.45 138.268 204.701 142.15C208.867 144.111 213.183 146.796 217.575 148.209C220.849 149.262 224.876 148.151 227.848 146.356C233.563 142.902 236.399 133.439 232.002 128.019C230.468 126.128 228.291 124.839 226.155 123.607C214.999 117.172 203.59 111.146 191.962 105.545C189.133 104.182 186.291 102.845 183.437 101.533C181.942 100.845 178.428 98.3692 176.508 98.3148Z" fill="#2F4156"/>
<defs>
<linearGradient id="paint0_linear_47_560" x1="76.0576" y1="196.436" x2="218.329" y2="209.398" gradientUnits="userSpaceOnUse">
<stop/>
<stop offset="1"/>
</linearGradient>
</defs>
</svg>
