<svg width="239" height="201" viewBox="0 0 239 201" fill="none" xmlns="http://www.w3.org/2000/svg">
<path d="M238.115 143.126C238.115 143.197 185.005 143.254 119.506 143.254C53.9834 143.254 0.885254 143.197 0.885254 143.126C0.885254 143.055 53.9839 142.998 119.506 142.998C185.005 142.998 238.115 143.055 238.115 143.126Z" fill="#E0E0E0"/>
<path d="M153.405 200.881L83.417 200.84C74.9993 200.836 68.1787 194.212 68.1802 186.043L68.2146 15.7794C68.2162 7.6064 75.0465 0.9836 83.4692 0.988039L153.457 1.02799C161.875 1.03292 168.695 7.65671 168.694 15.8247L168.659 186.089C168.657 194.262 161.827 200.885 153.405 200.881Z" fill="#263238"/>
<path d="M153.895 6.10409L140.279 6.04293C138.452 6.03504 136.965 7.53439 136.958 9.39182L136.947 11.7952C136.94 13.6531 135.452 15.1525 133.627 15.1441L107.085 15.0247C105.259 15.0169 103.785 13.5037 103.793 11.6463L103.804 9.24287C103.812 7.38495 102.338 5.87228 100.512 5.86439L95.7227 5.84269L83.805 5.78893C77.8864 5.76279 73.0666 10.4113 73.0418 16.1715L72.315 183.415C72.2902 189.172 77.0639 193.859 82.9794 193.886L153.069 194.201C158.987 194.227 163.807 189.578 163.833 183.818L164.559 16.5744C164.584 10.8182 159.811 6.13072 153.895 6.10409Z" fill="#F5F5F5"/>
<path d="M124.148 162.597C124.068 164.617 123.992 166.51 123.929 168.085H133.997L132.764 162.067L124.148 162.597Z" fill="#F5F5F5"/>
<path d="M83.23 165.116L83.3177 168.085H122.923C122.99 166.417 123.064 164.567 123.14 162.659L83.23 165.116Z" fill="#F5F5F5"/>
<path d="M133.27 162.035L134.509 168.084H153.07L152.847 160.83L133.27 162.035Z" fill="#F5F5F5"/>
<path d="M125.153 77.4708L128.663 57.668L119.471 57.0051V77.4708H125.153Z" fill="#EBEBEB"/>
<path d="M82.402 154.121L72.4254 157.925L72.3955 164.803L82.699 164.168L82.402 154.121Z" fill="#F5F5F5"/>
<path d="M82.3565 152.575L81.8112 134.131L81.8036 134.132V127.627L72.5532 128.581L72.4326 156.348L82.3524 152.565L82.3565 152.575Z" fill="#EBEBEB"/>
<path d="M81.8033 113.106L72.625 111.927L72.5591 127.106L81.8033 126.152V113.106Z" fill="#F5F5F5"/>
<path d="M150.212 127.901L149.826 133.187L138.986 134.325L139.825 138.507L152.13 137.604L151.945 131.607L152.927 127.635L150.212 127.901Z" fill="#F5F5F5"/>
<path d="M130.675 139.178L139.32 138.544L137.438 129.156L129.892 129.897L130.675 139.178Z" fill="#F5F5F5"/>
<path d="M130.757 140.152L131.418 147.981L132.59 158.717L133.071 161.068L152.816 159.852L152.16 138.582L130.757 140.152Z" fill="#EBEBEB"/>
<path d="M96.7744 103.195L97.5336 104.462L82.3059 113.106V133.608L98.3769 132.501L129.351 129.459L128.216 116.019L98.6263 112.258L98.8214 110.804L128.09 114.524L126.171 91.7792L97.2011 94.4898L97.1048 93.5163L126.088 90.8041L125.087 78.9365H97.2209L72.7489 83.2703L72.6309 110.448L81.8969 111.638L96.7744 103.195ZM83.8654 131.651C83.8654 131.651 83.9804 114.744 83.8654 114.113L96.2904 107.681L97.901 130.787L83.8654 131.651Z" fill="#F5F5F5"/>
<path d="M149.197 128.001L137.939 129.107L138.792 133.362L148.883 132.303L149.197 128.001Z" fill="#F5F5F5"/>
<path d="M124.291 158.975C124.256 159.862 124.221 160.747 124.187 161.615L132.566 161.099L132.135 158.996L124.291 158.975Z" fill="#F5F5F5"/>
<path d="M106.242 77.4709L107.72 70.958H118.968V56.9687L83.7937 54.4336V67.5687L72.8075 69.9869L72.7563 81.7795L97.0859 77.4709H106.242Z" fill="#EBEBEB"/>
<path d="M129.714 38.5452L129.414 37.3467L142.845 32.174L134.109 15.107C133.951 15.1297 133.79 15.1455 133.626 15.1445L118.783 15.0779L119.187 38.9645L129.714 38.5452Z" fill="#F5F5F5"/>
<path d="M150.069 29.3917L150.053 6.08665L140.278 6.04276C138.452 6.03486 136.965 7.53422 136.957 9.39115L136.947 11.795C136.942 12.9413 136.373 13.9504 135.509 14.5536L144.252 31.6319L150.069 29.3917Z" fill="#EBEBEB"/>
<path d="M99.5752 30.3922L98.4425 5.85509L95.7219 5.84276L85.0981 5.79492L80.5723 27.7373L99.5752 30.3922ZM97.1536 8.34185L97.5155 28.3242L83.3947 26.3134L86.4873 8.34185H97.1536Z" fill="#F5F5F5"/>
<path d="M100.088 30.4636L100.091 30.6727C100.115 32.5874 100.156 36.0334 100.185 39.7196L118.685 38.9838L118.28 15.075L107.085 15.0247C105.259 15.0168 103.785 13.5041 103.793 11.6462L103.804 9.24281C103.812 7.38489 102.337 5.87222 100.511 5.86433L98.9458 5.85693L100.082 30.4626L100.088 30.4636Z" fill="#F5F5F5"/>
<path d="M79.0784 27.5279L83.5602 5.79956C77.7546 5.90116 73.0656 10.4915 73.0413 16.1712L72.9941 27.0031L73.0413 26.6845L79.0784 27.5279Z" fill="#F5F5F5"/>
<path d="M82.2873 54.3244L72.8788 53.6462L72.8145 68.4815L82.2873 66.3967V54.3244Z" fill="#F5F5F5"/>
<path d="M78.9795 28.0084L72.9936 27.1719L72.8892 51.1961L74.1775 51.2893L78.9795 28.0084Z" fill="#F5F5F5"/>
<path d="M97.9831 152.295L98.1412 133.007L82.313 134.097L82.8715 152.992L97.9831 152.295Z" fill="#F5F5F5"/>
<path d="M100.895 147.843L123.312 158.294C123.58 151.464 123.818 145.078 123.796 144.672L124.282 144.646L124.519 144.186C124.838 144.341 124.838 144.341 124.671 148.996C124.577 151.594 124.445 155.051 124.31 158.508H132.063L130.918 148.027L129.393 129.947L100.104 132.823L100.895 147.843Z" fill="#F5F5F5"/>
<path d="M155.843 115.833L155.59 113.29L128.72 116.01L129.851 129.41L153.051 127.131L155.843 115.833Z" fill="#F5F5F5"/>
<path d="M118.968 72.4243H108.931L107.786 77.4708H118.968V72.4243Z" fill="#F5F5F5"/>
<path d="M151.694 74.1278L126.556 72.4351L125.531 78.215L126.589 90.7582L153.101 88.2774L151.694 74.1278ZM127.48 78.2041L128.829 74.5568L150.664 75.9003L151.927 86.3352L128.218 89.071L127.48 78.2041Z" fill="#F5F5F5"/>
<path d="M154.302 100.345L153.198 89.2505L126.671 91.7328L127.668 103.539L154.302 100.345Z" fill="#F5F5F5"/>
<path d="M82.7279 165.146L72.4366 165.78L72.394 165.128L72.3813 168.084H82.8151L82.7279 165.146Z" fill="#F5F5F5"/>
<path d="M164.374 23.8828L164.526 24.2552L164.559 16.5745C164.584 10.8177 159.811 6.13078 153.895 6.10415L150.556 6.08936L150.571 29.1986L164.374 23.8828Z" fill="#EBEBEB"/>
<path d="M123.291 158.827L100.409 148.159L99.6024 132.872L98.644 132.966L98.4818 152.761L82.8862 153.481L82.8994 153.922L82.9029 153.931L82.8999 153.932L83.2015 164.138L123.179 161.676C123.216 160.73 123.254 159.776 123.291 158.827ZM83.8654 154.739L105.695 153.248L119.897 159.661L83.8659 161.559V154.739H83.8654Z" fill="#F5F5F5"/>
<path d="M157.871 49.5492L158.807 44.1456C150.601 41.2959 150.033 32.9685 150.058 30.4478L144.701 32.5108L152.766 48.2654L157.871 49.5492Z" fill="#F5F5F5"/>
<path d="M128.596 114.548L139.753 113.419L137.554 103.83L127.791 105.001L128.596 114.548Z" fill="#F5F5F5"/>
<path d="M152.665 58.9515L131.827 58.948L130.097 58.8232L127.744 72.1014L152.477 73.767L151.903 67.9935L154.338 59.4654L152.665 58.9515Z" fill="#F5F5F5"/>
<path d="M151.223 55.3879L151.484 49.0497L143.294 33.052L130.596 37.9427L134.961 55.3879H151.223ZM142.8 34.9982L150.305 48.8914L149.221 53.2208L136.38 52.7503L133.17 39.6092L142.8 34.9982Z" fill="#F5F5F5"/>
<path d="M154.466 131.861L154.849 144.309L163.877 143.815L163.906 144.303L154.865 144.798L155.324 159.698L163.86 159.172L163.923 160.148L155.354 160.676L155.583 168.084H163.901L164.082 126.539L155.574 127.375L154.466 131.861Z" fill="#F5F5F5"/>
<path d="M99.5911 30.8878L80.4736 28.217L75.6924 51.3978L99.6757 53.127C99.7715 49.5582 99.6874 38.6109 99.5911 30.8878Z" fill="#EBEBEB"/>
<path d="M131.035 55.3878H133.928L129.835 39.0295L119.195 39.4527L119.45 54.5528L131.035 55.3878Z" fill="#F5F5F5"/>
<path d="M72.3296 179.985L72.315 183.415C72.3144 183.521 72.3271 183.624 72.3296 183.729V179.985Z" fill="#F5F5F5"/>
<path d="M100.166 53.1624L118.947 54.5163L118.693 39.4724L100.189 40.2083C100.228 45.2957 100.244 50.7225 100.166 53.1624Z" fill="#F5F5F5"/>
<path d="M154.448 101.805L138.055 103.771L140.256 113.368L155.445 111.83L154.448 101.805Z" fill="#F5F5F5"/>
<path d="M158.892 43.6559L159.942 37.5919L164.466 37.9346L164.523 24.877L150.566 30.2524C150.282 39.4404 156.212 42.6714 158.892 43.6559Z" fill="#EBEBEB"/>
<path d="M153.518 67.0912L154.087 72.8184L164.312 73.5069L164.363 61.7133L155.803 59.0825L153.518 67.0912Z" fill="#F5F5F5"/>
<path d="M158.384 116.006L155.699 126.872L164.084 126.048L164.134 114.654C161.56 113.994 159.315 113.457 158.108 113.231L158.384 116.006Z" fill="#F5F5F5"/>
<path d="M152.724 55.5733L164.374 59.1535L164.402 52.7057L152.96 49.8289L152.724 55.5733Z" fill="#F5F5F5"/>
<path d="M157.959 111.738C158.898 111.876 160.678 112.244 164.14 113.13L164.248 88.2163L155.699 89.0163L157.959 111.738Z" fill="#F5F5F5"/>
<path d="M155.602 88.0433L164.252 87.2335L164.305 74.9767L154.234 74.2991L155.602 88.0433Z" fill="#F5F5F5"/>
<path d="M159.857 43.9641C161.496 44.4494 163.022 44.8248 164.435 45.1005L164.462 38.9147L160.779 38.6355L159.857 43.9641Z" fill="#F5F5F5"/>
<path d="M121.274 46.4565L126.835 47.8552L126.859 42.2652C125.421 41.985 123.868 41.6038 122.199 41.1116L121.274 46.4565Z" fill="#F5F5F5"/>
<path d="M163.923 160.148L163.86 159.172L155.324 159.698L154.864 144.798L163.905 144.303L163.877 143.815L154.849 144.309L154.465 131.861L155.574 127.375L164.081 126.539L164.084 126.048L155.699 126.872L158.384 116.006L158.108 113.231C159.314 113.457 161.559 113.994 164.133 114.654L164.14 113.13C160.678 112.244 158.898 111.876 157.959 111.739L155.699 89.0168L164.248 88.2168L164.252 87.2338L155.601 88.0432L154.234 74.2989L164.305 74.9771L164.312 73.5073L154.087 72.8188L153.517 67.0912L155.803 59.083L164.363 61.7137L164.374 59.154L152.724 55.5738L152.96 49.8294L164.402 52.7068L164.409 51.1941L158.847 49.7954L159.773 44.4505C161.442 44.9427 162.995 45.3234 164.433 45.6041L164.435 45.101C163.022 44.8253 161.496 44.45 159.857 43.9646L160.779 38.636L164.462 38.9152L164.466 37.9347L159.942 37.5919L158.892 43.6559C156.213 42.672 150.281 39.4404 150.566 30.2525L164.523 24.877L164.526 24.2555L164.374 23.8832L150.571 29.199L150.556 6.08969L150.054 6.08722L150.069 29.3923L144.252 31.633L135.509 14.5546C135.099 14.8412 134.623 15.033 134.108 15.1075L142.845 32.1745L129.413 37.3473L129.713 38.5458L119.187 38.9645L118.783 15.0779L118.28 15.0755L118.685 38.9842L100.185 39.7201C100.156 36.0344 100.115 32.5878 100.091 30.6732L100.088 30.4641L100.082 30.4631L98.9458 5.85739L98.4431 5.85542L99.5758 30.3925L80.5734 27.7376L85.0992 5.79524L83.8053 5.78932C83.7232 5.78883 83.6432 5.7987 83.5611 5.80018L79.0793 27.5285L73.0422 26.6851L72.995 27.0037L72.9945 27.1724L78.9805 28.0089L74.1785 51.2893L72.8896 51.1966L72.879 53.6468L82.2874 54.325V66.3972L72.8146 68.4825L72.808 69.9873L83.7947 67.5691V54.434L118.969 56.9696V70.9589H107.721L106.243 77.4718H97.0869L72.7574 81.7804L72.7508 83.2724L97.2227 78.9386H125.089L126.09 90.8061L97.1066 93.5183L97.2029 94.4919L126.173 91.7812L128.092 114.527L98.8232 110.806L98.6281 112.26L128.218 116.021L129.353 129.461L98.3787 132.503L82.3077 133.61V113.108L97.5354 104.464L96.7762 103.197L81.8997 111.641L72.6337 110.451L72.6271 111.929L81.805 113.109V126.155L72.5607 127.108L72.5546 128.583L81.805 127.63V134.134L81.8126 134.134L82.3579 152.578L82.3543 152.568L72.434 156.35L72.4274 157.928L82.404 154.124L82.701 164.171L72.3975 164.805L72.396 165.13L72.4381 165.782L82.7299 165.149L82.8166 168.087H83.3193L83.2316 165.118L123.142 162.661C123.066 164.569 122.992 166.419 122.925 168.087H123.931C123.994 166.513 124.07 164.619 124.15 162.599L132.766 162.069L133.998 168.087H134.51L133.272 162.038L152.848 160.833L153.072 168.087H155.585M124.187 161.615C124.221 160.747 124.256 159.862 124.29 158.974L132.135 158.995L132.566 161.098L124.187 161.615ZM133.072 161.068L132.59 158.717L131.418 147.981L130.757 140.152L152.161 138.582L152.816 159.852L133.072 161.068ZM137.939 129.107L149.197 128.001L148.883 132.303L138.792 133.362L137.939 129.107ZM137.437 129.156L139.321 138.544L130.675 139.179L129.892 129.897L137.437 129.156ZM152.13 137.604L139.824 138.507L138.986 134.325L149.825 133.187L150.211 127.902L152.926 127.635L151.945 131.607L152.13 137.604ZM137.554 103.83L139.753 113.419L128.596 114.548L127.791 105.001L137.554 103.83ZM140.256 113.368L138.056 103.771L154.448 101.805L155.445 111.83L140.256 113.368ZM151.546 72.6477L126.813 70.9826L129.167 57.7044L130.896 57.8292L151.734 57.8327L153.407 58.3466L150.972 66.8747L151.546 72.6477ZM150.058 30.4478C150.034 32.9686 150.602 41.2959 158.807 44.1457L157.871 49.5493L152.766 48.2654L144.701 32.5109L150.058 30.4478ZM143.295 33.0524L151.485 49.0501L151.224 55.3883H134.962L130.597 37.9431L143.295 33.0524ZM129.835 39.0296L133.928 55.3879H131.036L119.45 54.5528L119.195 39.4528L129.835 39.0296ZM118.693 39.473L118.947 54.5168L100.165 53.163C100.244 50.7231 100.228 45.2963 100.189 40.2089L118.693 39.473ZM80.4736 28.2175L99.591 30.8882C99.6873 38.6114 99.7709 49.5586 99.6751 53.1275L75.6918 51.3983L80.4736 28.2175ZM128.663 57.668L125.153 77.4708H119.471V57.0051L128.663 57.668ZM108.931 72.4243H118.968V77.4703H107.786L108.931 72.4243ZM125.531 78.215L126.555 72.4351L151.694 74.1278L153.102 88.2775L126.589 90.7583L125.531 78.215ZM153.199 89.2506L154.302 100.345L127.668 103.539L126.671 91.7334L153.199 89.2506ZM128.72 116.01L155.59 113.29L155.843 115.833L153.051 127.131L129.85 129.41L128.72 116.01ZM130.918 148.027L132.062 158.508H124.309C124.445 155.05 124.577 151.594 124.67 148.996C124.837 144.34 124.837 144.34 124.519 144.185L124.281 144.646L123.795 144.671C123.818 145.078 123.579 151.464 123.312 158.293L100.895 147.843L100.102 132.822L129.392 129.946L130.918 148.027ZM98.141 133.007L97.9829 152.295L82.8713 152.992L82.3128 134.097L98.141 133.007ZM82.8992 153.932L82.9022 153.931L82.8987 153.922L82.8855 153.481L98.4811 152.761L98.6433 132.966L99.6017 132.871L100.408 148.158L123.291 158.826C123.254 159.776 123.216 160.73 123.179 161.677L83.2007 164.138L82.8992 153.932Z" fill="white"/>
<path d="M105.695 153.248L83.8652 154.739V161.558L119.897 159.66L105.695 153.248Z" fill="#E0E0E0"/>
<path d="M150.664 75.9004L128.829 74.5569L127.48 78.2042L128.219 89.071L151.928 86.3352L150.664 75.9004Z" fill="#E0E0E0"/>
<path d="M97.9441 29.6005L97.5817 9.61816H86.9153L83.8228 27.5897L97.9441 29.6005Z" fill="#E0E0E0"/>
<path d="M149.221 53.2211L150.305 48.8912L142.8 34.998L133.17 39.6095L136.38 52.7506L149.221 53.2211Z" fill="#EBEBEB"/>
<path d="M153.7 23.1651C153.7 21.1311 151.811 19.5262 149.647 19.9212C148.286 20.1698 147.201 21.2514 146.962 22.5791C146.813 23.4092 146.989 24.1899 147.378 24.8341H147.376L147.386 24.8464C147.516 25.06 147.679 25.2124 147.844 25.4368L149.816 27.9778C150.061 28.2939 150.549 28.2939 150.794 27.9778L152.733 25.4787C152.733 25.4787 153.095 25.059 153.226 24.843L153.233 24.8341H153.232C153.527 24.3443 153.7 23.7752 153.7 23.1651ZM150.305 24.6037C149.48 24.6037 148.811 23.9527 148.811 23.1498C148.811 22.3468 149.48 21.6958 150.305 21.6958C151.13 21.6958 151.799 22.3468 151.799 23.1498C151.799 23.9527 151.13 24.6037 150.305 24.6037Z" fill="#FF725E"/>
<path d="M154.45 194.201H82.213C76.7465 194.201 72.3145 189.888 72.3145 184.568V161.615H164.081V184.828C164.081 190.005 159.769 194.201 154.45 194.201Z" fill="#FF725E"/>
<path d="M90.4323 181.966V173.54H91.3371V181.118H95.0694V181.966H90.4323ZM99.1551 182.102C98.5821 182.102 98.0618 181.966 97.5943 181.695C97.1269 181.416 96.7536 181.039 96.4747 180.564C96.2032 180.081 96.0675 179.534 96.0675 178.924C96.0675 178.32 96.2032 177.781 96.4747 177.306C96.7461 176.831 97.1118 176.458 97.5717 176.187C98.0392 175.908 98.567 175.768 99.1551 175.768C99.7432 175.768 100.267 175.904 100.727 176.175C101.195 176.447 101.56 176.82 101.824 177.295C102.096 177.77 102.231 178.313 102.231 178.924C102.231 179.542 102.092 180.092 101.813 180.575C101.534 181.05 101.161 181.423 100.693 181.695C100.233 181.966 99.7206 182.102 99.1551 182.102ZM99.1551 181.254C99.5623 181.254 99.928 181.152 100.252 180.948C100.584 180.745 100.844 180.466 101.033 180.111C101.229 179.757 101.327 179.361 101.327 178.924C101.327 178.486 101.229 178.094 101.033 177.747C100.844 177.401 100.584 177.125 100.252 176.922C99.928 176.718 99.5623 176.616 99.1551 176.616C98.748 176.616 98.3785 176.718 98.0467 176.922C97.7225 177.125 97.4624 177.401 97.2664 177.747C97.0703 178.094 96.9723 178.486 96.9723 178.924C96.9723 179.361 97.0703 179.757 97.2664 180.111C97.4624 180.466 97.7225 180.745 98.0467 180.948C98.3785 181.152 98.748 181.254 99.1551 181.254ZM106.498 182.102C105.903 182.102 105.379 181.962 104.926 181.683C104.474 181.404 104.12 181.027 103.863 180.552C103.607 180.07 103.479 179.527 103.479 178.924C103.479 178.32 103.607 177.781 103.863 177.306C104.12 176.831 104.474 176.458 104.926 176.187C105.379 175.908 105.903 175.768 106.498 175.768C106.875 175.768 107.23 175.836 107.562 175.972C107.893 176.107 108.187 176.292 108.444 176.526C108.7 176.752 108.892 177.016 109.021 177.318L108.251 177.714C108.101 177.389 107.871 177.125 107.562 176.922C107.252 176.718 106.898 176.616 106.498 176.616C106.099 176.616 105.737 176.718 105.413 176.922C105.096 177.118 104.843 177.393 104.655 177.747C104.474 178.094 104.383 178.49 104.383 178.935C104.383 179.372 104.474 179.768 104.655 180.123C104.843 180.469 105.096 180.745 105.413 180.948C105.737 181.152 106.099 181.254 106.498 181.254C106.898 181.254 107.249 181.152 107.55 180.948C107.859 180.745 108.093 180.473 108.251 180.134L109.021 180.552C108.892 180.846 108.7 181.11 108.444 181.344C108.187 181.578 107.893 181.762 107.562 181.898C107.23 182.034 106.875 182.102 106.498 182.102ZM112.152 182.102C111.767 182.102 111.424 182.03 111.122 181.887C110.821 181.736 110.583 181.533 110.41 181.276C110.236 181.02 110.15 180.726 110.15 180.394C110.15 180.077 110.218 179.791 110.353 179.534C110.489 179.271 110.7 179.048 110.987 178.867C111.273 178.686 111.639 178.558 112.084 178.483L114.459 178.087V178.856L112.287 179.218C111.85 179.293 111.533 179.433 111.337 179.636C111.149 179.84 111.055 180.081 111.055 180.36C111.055 180.631 111.16 180.861 111.371 181.05C111.59 181.238 111.869 181.333 112.208 181.333C112.623 181.333 112.985 181.246 113.294 181.073C113.603 180.892 113.844 180.65 114.018 180.349C114.191 180.047 114.278 179.712 114.278 179.342V177.804C114.278 177.442 114.146 177.148 113.882 176.922C113.618 176.696 113.275 176.583 112.853 176.583C112.483 176.583 112.159 176.677 111.88 176.865C111.601 177.046 111.394 177.284 111.258 177.578L110.489 177.159C110.602 176.903 110.779 176.669 111.021 176.458C111.269 176.247 111.552 176.081 111.869 175.96C112.186 175.832 112.514 175.768 112.853 175.768C113.298 175.768 113.69 175.855 114.029 176.028C114.376 176.202 114.644 176.443 114.832 176.752C115.028 177.054 115.126 177.404 115.126 177.804V181.966H114.278V180.756L114.402 180.88C114.297 181.107 114.131 181.314 113.905 181.502C113.686 181.683 113.426 181.83 113.124 181.943C112.83 182.049 112.506 182.102 112.152 182.102ZM119.079 182.034C118.536 182.034 118.118 181.876 117.824 181.559C117.53 181.242 117.383 180.79 117.383 180.202V176.752H116.263V175.904H116.546C116.802 175.904 117.006 175.821 117.156 175.655C117.307 175.482 117.383 175.267 117.383 175.01V174.501H118.231V175.904H119.565V176.752H118.231V180.202C118.231 180.405 118.261 180.586 118.321 180.745C118.382 180.895 118.483 181.016 118.627 181.107C118.777 181.197 118.977 181.242 119.226 181.242C119.286 181.242 119.358 181.238 119.441 181.231C119.524 181.223 119.596 181.216 119.656 181.208V181.966C119.565 181.989 119.464 182.004 119.35 182.011C119.237 182.026 119.147 182.034 119.079 182.034ZM121.145 181.966V175.904H121.994V181.966H121.145ZM121.145 174.784V173.54H121.994V174.784H121.145ZM123.73 181.966V175.904H124.578V177.08L124.386 177.035C124.537 176.643 124.782 176.334 125.121 176.107C125.468 175.881 125.867 175.768 126.32 175.768C126.75 175.768 127.134 175.866 127.473 176.062C127.82 176.258 128.092 176.53 128.288 176.877C128.491 177.216 128.593 177.6 128.593 178.03V181.966H127.745V178.358C127.745 177.989 127.677 177.676 127.541 177.419C127.413 177.163 127.228 176.967 126.987 176.831C126.753 176.688 126.482 176.616 126.173 176.616C125.864 176.616 125.588 176.688 125.347 176.831C125.106 176.967 124.917 177.167 124.782 177.431C124.646 177.687 124.578 177.996 124.578 178.358V181.966H123.73ZM133.086 184.454C132.671 184.454 132.287 184.39 131.932 184.262C131.585 184.134 131.284 183.957 131.028 183.73C130.779 183.512 130.586 183.255 130.451 182.961L131.231 182.543C131.352 182.829 131.567 183.078 131.876 183.289C132.185 183.5 132.581 183.606 133.063 183.606C133.433 183.606 133.772 183.534 134.081 183.391C134.39 183.248 134.639 183.037 134.828 182.758C135.016 182.479 135.11 182.136 135.11 181.729V180.383L135.246 180.507C135.035 180.944 134.722 181.284 134.307 181.525C133.893 181.759 133.44 181.876 132.95 181.876C132.385 181.876 131.876 181.74 131.423 181.468C130.971 181.197 130.613 180.831 130.349 180.371C130.093 179.904 129.964 179.387 129.964 178.822C129.964 178.249 130.093 177.732 130.349 177.272C130.613 176.812 130.967 176.447 131.412 176.175C131.864 175.904 132.377 175.768 132.95 175.768C133.44 175.768 133.885 175.881 134.285 176.107C134.692 176.334 135.012 176.639 135.246 177.024L135.11 177.261V175.904H135.959V181.729C135.959 182.249 135.834 182.713 135.585 183.12C135.344 183.534 135.005 183.859 134.568 184.092C134.138 184.334 133.644 184.454 133.086 184.454ZM132.995 181.027C133.388 181.027 133.742 180.929 134.059 180.733C134.375 180.53 134.628 180.262 134.816 179.93C135.012 179.591 135.11 179.222 135.11 178.822C135.11 178.422 135.012 178.057 134.816 177.725C134.628 177.386 134.375 177.118 134.059 176.922C133.742 176.718 133.388 176.616 132.995 176.616C132.596 176.616 132.234 176.718 131.91 176.922C131.585 177.118 131.329 177.382 131.141 177.714C130.96 178.045 130.869 178.415 130.869 178.822C130.869 179.222 130.96 179.591 131.141 179.93C131.329 180.262 131.582 180.53 131.898 180.733C132.223 180.929 132.588 181.027 132.995 181.027ZM137.996 181.966V180.722H138.901V181.966H137.996ZM141.232 181.966V180.722H142.137V181.966H141.232ZM144.468 181.966V180.722H145.373V181.966H144.468Z" fill="white"/>
<path d="M82.3057 133.608L129.851 129.41L126.671 91.733L125.01 78.3103L119.471 78.5249L119.446 55.7534L150.305 57.0052L150.986 47.3506L143.501 32.4454L150.305 29.824" stroke="#FF725E" stroke-width="2" stroke-miterlimit="10"/>
<path d="M86.4869 125.224C86.4869 122.719 84.1606 120.743 81.4953 121.23C79.8187 121.536 78.4833 122.868 78.1893 124.503C78.0059 125.525 78.2228 126.487 78.7017 127.28H78.6992L78.7108 127.295C78.871 127.558 79.0722 127.746 79.2749 128.022L81.7026 131.152C82.0046 131.541 82.6057 131.541 82.9078 131.152L85.2948 128.074C85.2948 128.074 85.7403 127.557 85.902 127.291L85.9106 127.28H85.9091C86.274 126.676 86.4869 125.976 86.4869 125.224ZM82.3057 126.996C81.2895 126.996 80.4654 126.195 80.4654 125.205C80.4654 124.216 81.289 123.415 82.3057 123.415C83.3218 123.415 84.1459 124.216 84.1459 125.205C84.1459 126.195 83.3218 126.996 82.3057 126.996Z" fill="#FF725E"/>
<path d="M83.2803 133.608C83.2803 134.132 82.8439 134.557 82.3052 134.557C81.7669 134.557 81.3301 134.132 81.3301 133.608C81.3301 133.084 81.7664 132.659 82.3052 132.659C82.8439 132.659 83.2803 133.084 83.2803 133.608Z" fill="#FF725E"/>
<path d="M150.404 30.6027C150.846 30.6027 151.205 30.254 151.205 29.8239C151.205 29.3938 150.846 29.0452 150.404 29.0452C149.962 29.0452 149.604 29.3938 149.604 29.8239C149.604 30.254 149.962 30.6027 150.404 30.6027Z" fill="#FF725E"/>
<path d="M129.185 33.3494H88.8994C88.0003 33.3494 87.271 34.0591 87.271 34.934V47.0744C87.271 47.9493 88.0003 48.659 88.8994 48.659H118.783L119.057 52.3167L124.667 48.659H129.185C130.084 48.659 130.814 47.9493 130.814 47.0744V34.934C130.814 34.0586 130.085 33.3494 129.185 33.3494Z" fill="white"/>
<path d="M129.185 33.3495C129.185 33.3495 129.321 33.3298 129.579 33.3826C129.829 33.4363 130.222 33.5892 130.533 33.9971C130.688 34.1974 130.804 34.4657 130.842 34.7744C130.861 35.0851 130.851 35.4126 130.857 35.7737C130.861 36.4947 130.866 37.3238 130.87 38.2545C130.877 40.1223 130.885 42.3984 130.895 45.0317C130.896 45.6906 130.898 46.3717 130.9 47.0745C130.917 47.8213 130.334 48.5645 129.526 48.7154C129.115 48.7786 128.743 48.7376 128.345 48.751C127.952 48.7519 127.553 48.7524 127.15 48.7534C126.343 48.7549 125.514 48.7564 124.667 48.7579L124.724 48.7411C122.97 49.8883 121.09 51.1179 119.12 52.4076L118.959 52.5127L118.945 52.3248C118.858 51.1849 118.763 49.9401 118.666 48.6676L118.782 48.7732C110.63 48.7776 101.21 48.7825 91.2205 48.7875C90.701 48.7875 90.183 48.7875 89.6666 48.7875L88.8927 48.787C88.6149 48.785 88.3377 48.7184 88.0909 48.5951C87.5973 48.3485 87.2374 47.8652 87.1609 47.332C87.1173 46.7998 87.1492 46.3318 87.1391 45.8317C87.1396 43.8623 87.1406 41.9215 87.1411 40.0143C87.1416 39.0609 87.1421 38.1159 87.1427 37.1798C87.1432 36.7117 87.1432 36.2461 87.1437 35.7825L87.1442 35.0891C87.1376 34.8657 87.1563 34.5969 87.2445 34.369C87.4118 33.9019 87.7939 33.5157 88.2652 33.3436C88.4963 33.2534 88.7594 33.2233 88.994 33.2277L89.6874 33.2282C90.6092 33.2292 91.521 33.2297 92.4211 33.2307C99.6214 33.241 106.106 33.2504 111.555 33.2583C116.995 33.2756 121.4 33.2894 124.455 33.2992C125.97 33.3096 127.15 33.318 127.962 33.3234C128.356 33.3288 128.659 33.3333 128.874 33.3362C129.08 33.3407 129.185 33.3495 129.185 33.3495C129.185 33.3495 129.08 33.3584 128.875 33.3629C128.659 33.3658 128.357 33.3703 127.962 33.3757C127.151 33.3811 125.971 33.3895 124.455 33.3998C121.4 33.4097 116.995 33.4235 111.556 33.4408C106.107 33.4487 99.6219 33.458 92.4216 33.4684C91.5215 33.4694 90.6097 33.4699 89.6879 33.4709L88.9945 33.4714C88.766 33.4684 88.5602 33.4945 88.3565 33.572C87.9525 33.7194 87.6251 34.0524 87.4827 34.4519C87.4072 34.6565 87.3915 34.8543 87.3976 35.0906L87.3981 35.784C87.3986 36.2471 87.3986 36.7132 87.3991 37.1813C87.3996 38.1174 87.4001 39.0624 87.4006 40.0157C87.4011 41.9225 87.4021 43.8633 87.4026 45.8331C87.4113 46.3165 87.3839 46.8398 87.4219 47.2955C87.4868 47.7478 87.7934 48.1596 88.213 48.3692C88.4229 48.4738 88.6575 48.53 88.8942 48.5325H89.6671C90.1835 48.5325 90.7015 48.5325 91.221 48.5325C101.21 48.5374 110.631 48.5428 118.783 48.5468H118.892L118.899 48.6523C118.993 49.9253 119.085 51.1706 119.17 52.3104L118.995 52.2276C120.97 50.9443 122.853 49.7206 124.611 48.5783L124.637 48.5616H124.668C125.515 48.563 126.343 48.5645 127.15 48.566C127.554 48.567 127.953 48.5675 128.346 48.5685C128.733 48.5586 129.143 48.5956 129.49 48.5413C130.212 48.4097 130.739 47.7473 130.727 47.0765C130.729 46.3737 130.731 45.6926 130.733 45.0336C130.743 42.4004 130.751 40.1243 130.757 38.2565C130.762 37.3253 130.767 36.4967 130.771 35.7756C130.77 35.4176 130.783 35.0802 130.77 34.7833C130.738 34.4879 130.632 34.2284 130.486 34.0326C130.193 33.6341 129.816 33.4748 129.572 33.4132C129.321 33.35 129.185 33.3594 129.185 33.3495Z" fill="#263238"/>
<path d="M103.44 42.9392C103.14 42.9392 102.858 42.8853 102.596 42.7774C102.338 42.6656 102.111 42.5115 101.914 42.315C101.718 42.1146 101.564 41.8796 101.452 41.6098C101.34 41.3362 101.284 41.0376 101.284 40.7139C101.284 40.3903 101.34 40.0935 101.452 39.8238C101.564 39.5502 101.718 39.3152 101.914 39.1187C102.111 38.9183 102.338 38.7641 102.596 38.6563C102.858 38.5484 103.14 38.4944 103.44 38.4944C103.741 38.4944 104.02 38.5503 104.278 38.662C104.54 38.7699 104.77 38.9241 104.966 39.1244C105.163 39.321 105.317 39.5541 105.429 39.8238C105.54 40.0935 105.596 40.3903 105.596 40.7139C105.596 41.0376 105.54 41.3362 105.429 41.6098C105.317 41.8796 105.163 42.1146 104.966 42.315C104.77 42.5115 104.54 42.6656 104.278 42.7774C104.02 42.8853 103.741 42.9392 103.44 42.9392ZM103.44 42.5057C103.691 42.5057 103.918 42.4595 104.122 42.367C104.33 42.2745 104.51 42.1454 104.66 41.9798C104.81 41.8141 104.926 41.6233 105.007 41.4075C105.091 41.1917 105.134 40.9605 105.134 40.7139C105.134 40.4712 105.091 40.2419 105.007 40.0261C104.926 39.8103 104.81 39.6196 104.66 39.4539C104.51 39.2882 104.33 39.1591 104.122 39.0666C103.918 38.9742 103.691 38.9279 103.44 38.9279C103.19 38.9279 102.961 38.9742 102.752 39.0666C102.548 39.1591 102.371 39.2882 102.221 39.4539C102.07 39.6196 101.953 39.8103 101.868 40.0261C101.787 40.2419 101.747 40.4712 101.747 40.7139C101.747 40.9605 101.787 41.1917 101.868 41.4075C101.953 41.6233 102.07 41.8141 102.221 41.9798C102.371 42.1454 102.55 42.2745 102.758 42.367C102.966 42.4595 103.194 42.5057 103.44 42.5057ZM107.989 42.9392C107.723 42.9392 107.482 42.8795 107.266 42.7601C107.054 42.6367 106.894 42.4633 106.786 42.2399L106.856 42.1763V42.8699H106.422V38.4944H106.856V40.4654L106.786 40.344C106.91 40.1475 107.074 39.9914 107.278 39.8758C107.486 39.7602 107.723 39.7024 107.989 39.7024C108.282 39.7024 108.542 39.7737 108.769 39.9163C109 40.055 109.181 40.2458 109.312 40.4885C109.447 40.7313 109.515 41.0087 109.515 41.3208C109.515 41.6291 109.447 41.9065 109.312 42.1532C109.181 42.3959 109 42.5886 108.769 42.7312C108.542 42.8699 108.282 42.9392 107.989 42.9392ZM107.966 42.5057C108.174 42.5057 108.359 42.4537 108.52 42.3497C108.686 42.2456 108.815 42.105 108.908 41.9277C109.004 41.7466 109.052 41.5443 109.052 41.3208C109.052 41.0935 109.004 40.8912 108.908 40.7139C108.815 40.5367 108.686 40.396 108.52 40.292C108.359 40.188 108.174 40.1359 107.966 40.1359C107.758 40.1359 107.569 40.188 107.399 40.292C107.233 40.396 107.101 40.5386 107 40.7197C106.904 40.897 106.856 41.0973 106.856 41.3208C106.856 41.5443 106.904 41.7466 107 41.9277C107.101 42.105 107.233 42.2456 107.399 42.3497C107.569 42.4537 107.758 42.5057 107.966 42.5057ZM109.7 44.1415C109.673 44.1415 109.636 44.1395 109.59 44.1357C109.54 44.1318 109.499 44.1261 109.468 44.1184V43.7195C109.549 43.7311 109.63 43.7369 109.711 43.7369C109.869 43.7369 110.002 43.6887 110.11 43.5924C110.222 43.496 110.278 43.3515 110.278 43.1589V39.7718H110.711V43.1589C110.711 43.3708 110.665 43.55 110.572 43.6964C110.48 43.8428 110.357 43.9527 110.202 44.0259C110.052 44.1029 109.885 44.1415 109.7 44.1415ZM110.278 39.1996V38.5638H110.711V39.1996H110.278ZM113.009 42.9392C112.72 42.9392 112.458 42.8699 112.223 42.7312C111.991 42.5886 111.808 42.394 111.674 42.1474C111.539 41.9008 111.471 41.6214 111.471 41.3093C111.471 40.9972 111.537 40.7216 111.668 40.4827C111.799 40.24 111.976 40.0492 112.199 39.9105C112.427 39.7718 112.681 39.7024 112.962 39.7024C113.186 39.7024 113.384 39.7448 113.558 39.8296C113.735 39.9105 113.885 40.0223 114.009 40.1648C114.132 40.3036 114.226 40.4615 114.292 40.6388C114.357 40.8122 114.39 40.9914 114.39 41.1763C114.39 41.2149 114.388 41.2592 114.384 41.3093C114.38 41.3555 114.375 41.4037 114.367 41.4538H111.749V41.0492H114.118L113.91 41.2226C113.945 41.0106 113.92 40.8218 113.835 40.6561C113.754 40.4866 113.637 40.3536 113.483 40.2573C113.329 40.1571 113.155 40.107 112.962 40.107C112.77 40.107 112.591 40.1571 112.425 40.2573C112.263 40.3575 112.136 40.4981 112.043 40.6793C111.951 40.8565 111.914 41.0684 111.934 41.3151C111.914 41.5617 111.953 41.7775 112.049 41.9624C112.149 42.1435 112.284 42.2842 112.454 42.3844C112.627 42.4845 112.812 42.5346 113.009 42.5346C113.236 42.5346 113.427 42.4807 113.581 42.3728C113.735 42.2649 113.86 42.13 113.957 41.9682L114.327 42.1647C114.265 42.3034 114.17 42.4325 114.043 42.552C113.916 42.6676 113.764 42.762 113.587 42.8352C113.413 42.9046 113.221 42.9392 113.009 42.9392ZM116.571 42.9392C116.266 42.9392 115.998 42.8679 115.767 42.7254C115.536 42.5828 115.355 42.3901 115.224 42.1474C115.093 41.9008 115.027 41.6233 115.027 41.3151C115.027 41.0068 115.093 40.7313 115.224 40.4885C115.355 40.2458 115.536 40.055 115.767 39.9163C115.998 39.7737 116.266 39.7024 116.571 39.7024C116.763 39.7024 116.944 39.7371 117.114 39.8065C117.283 39.8758 117.434 39.9702 117.565 40.0897C117.696 40.2053 117.794 40.3402 117.859 40.4943L117.466 40.6966C117.389 40.5309 117.272 40.396 117.114 40.292C116.956 40.188 116.775 40.1359 116.571 40.1359C116.366 40.1359 116.181 40.188 116.016 40.292C115.854 40.3922 115.725 40.5328 115.628 40.7139C115.536 40.8912 115.49 41.0935 115.49 41.3208C115.49 41.5443 115.536 41.7466 115.628 41.9277C115.725 42.105 115.854 42.2456 116.016 42.3497C116.181 42.4537 116.366 42.5057 116.571 42.5057C116.775 42.5057 116.954 42.4537 117.108 42.3497C117.266 42.2456 117.385 42.1069 117.466 41.9335L117.859 42.1474C117.794 42.2977 117.696 42.4325 117.565 42.552C117.434 42.6714 117.283 42.7658 117.114 42.8352C116.944 42.9046 116.763 42.9392 116.571 42.9392ZM119.805 42.9046C119.528 42.9046 119.314 42.8236 119.163 42.6618C119.013 42.5 118.938 42.2688 118.938 41.9682V40.2053H118.366V39.7718H118.51C118.641 39.7718 118.745 39.7294 118.822 39.6446C118.9 39.556 118.938 39.4462 118.938 39.3152V39.0551H119.372V39.7718H120.054V40.2053H119.372V41.9682C119.372 42.0722 119.387 42.1647 119.418 42.2456C119.449 42.3227 119.501 42.3844 119.574 42.4306C119.651 42.4768 119.753 42.5 119.88 42.5C119.911 42.5 119.948 42.498 119.99 42.4942C120.032 42.4903 120.069 42.4865 120.1 42.4826V42.8699C120.054 42.8814 120.002 42.8891 119.944 42.893C119.886 42.9007 119.84 42.9046 119.805 42.9046ZM120.861 42.8699V39.7718H121.295V42.8699H120.861ZM120.861 39.1996V38.5638H121.295V39.1996H120.861ZM123.008 42.8699L121.8 39.7718H122.286L123.303 42.4884H123.147L124.17 39.7718H124.661L123.442 42.8699H123.008ZM126.522 42.9392C126.233 42.9392 125.971 42.8699 125.736 42.7312C125.504 42.5886 125.321 42.394 125.187 42.1474C125.052 41.9008 124.984 41.6214 124.984 41.3093C124.984 40.9972 125.05 40.7216 125.181 40.4827C125.312 40.24 125.489 40.0492 125.712 39.9105C125.94 39.7718 126.194 39.7024 126.475 39.7024C126.699 39.7024 126.897 39.7448 127.071 39.8296C127.248 39.9105 127.398 40.0223 127.522 40.1648C127.645 40.3036 127.739 40.4615 127.805 40.6388C127.87 40.8122 127.903 40.9914 127.903 41.1763C127.903 41.2149 127.901 41.2592 127.897 41.3093C127.893 41.3555 127.888 41.4037 127.88 41.4538H125.262V41.0492H127.631L127.423 41.2226C127.458 41.0106 127.433 40.8218 127.348 40.6561C127.267 40.4866 127.15 40.3536 126.996 40.2573C126.842 40.1571 126.668 40.107 126.475 40.107C126.283 40.107 126.104 40.1571 125.938 40.2573C125.776 40.3575 125.649 40.4981 125.556 40.6793C125.464 40.8565 125.427 41.0684 125.447 41.3151C125.427 41.5617 125.466 41.7775 125.562 41.9624C125.662 42.1435 125.797 42.2842 125.967 42.3844C126.14 42.4845 126.325 42.5346 126.522 42.5346C126.749 42.5346 126.94 42.4807 127.094 42.3728C127.248 42.2649 127.373 42.13 127.47 41.9682L127.84 42.1647C127.778 42.3034 127.683 42.4325 127.556 42.552C127.429 42.6676 127.277 42.762 127.1 42.8352C126.926 42.9046 126.734 42.9392 126.522 42.9392Z" fill="#263238"/>
<path d="M96.7922 39.4702C96.7922 40.3584 96.0523 41.078 95.14 41.078C94.2277 41.078 93.4878 40.3579 93.4878 39.4702C93.4878 38.5824 94.2277 37.8623 95.14 37.8623C96.0523 37.8623 96.7922 38.5819 96.7922 39.4702Z" fill="#FF725E"/>
<path d="M95.1401 40.7544C93.5918 40.7544 92.3369 41.9761 92.3369 43.4823H97.9438C97.9438 41.9761 96.6884 40.7544 95.1401 40.7544Z" fill="#FF725E"/>
<path d="M119.471 57.5744C120.712 57.5744 121.718 56.5956 121.718 55.3881C121.718 54.1805 120.712 53.2017 119.471 53.2017C118.23 53.2017 117.224 54.1805 117.224 55.3881C117.224 56.5956 118.23 57.5744 119.471 57.5744Z" fill="#FF725E"/>
<path d="M53.3031 131.066C53.3031 131.066 58.3535 157.853 56.8969 163.44C55.6831 168.095 27.7203 189.124 27.7203 189.124L23.8462 185.289C23.8462 185.289 31.7378 176.764 35.6661 168.892C38.3035 163.606 44.926 159.483 44.926 159.483L36.9645 135.556L53.3031 131.066Z" fill="#CC725A"/>
<path d="M45.6604 162.803C45.1328 160.998 44.6052 159.192 44.0771 157.387L45.6604 162.803Z" fill="#CC725A"/>
<path d="M44.0779 157.387C44.0156 157.404 44.3197 158.631 44.7571 160.126C45.1944 161.622 45.5989 162.821 45.6612 162.804C45.7235 162.786 45.4195 161.56 44.9821 160.064C44.5447 158.568 44.1398 157.37 44.0779 157.387Z" fill="#844031"/>
<path d="M29.9433 190.103L29.5576 190.458C29.5576 190.458 33.0754 199.25 31.8955 200.455L19.7432 187.711L24.266 183.948C25.1711 186.658 26.9607 188.733 29.9433 190.103Z" fill="#455A64"/>
<g opacity="0.6">
<path d="M24.1039 186.498C23.7993 186.314 23.3518 186.4 23.1506 186.689C22.9489 186.977 23.036 187.421 23.3371 187.61C23.6381 187.8 24.1784 187.711 24.3456 187.403C24.5129 187.094 24.3816 186.578 24.0426 186.465" fill="white"/>
</g>
<g opacity="0.6">
<path d="M19.7432 187.711L20.8308 186.806L32.0795 199.352C32.0795 199.352 32.3668 200.148 31.895 200.455L19.7432 187.711Z" fill="white"/>
</g>
<path d="M29.5636 190.536C29.4977 190.592 29.1723 190.306 28.6741 190.186C28.18 190.053 27.7522 190.145 27.7233 190.065C27.6813 189.996 28.1516 189.744 28.7516 189.9C29.3527 190.051 29.635 190.496 29.5636 190.536Z" fill="#263238"/>
<path d="M30.2703 192.386C30.2222 192.456 29.8562 192.284 29.3839 192.317C28.911 192.337 28.5674 192.547 28.5112 192.483C28.4453 192.434 28.7788 192.053 29.3667 192.023C29.9541 191.988 30.3301 192.329 30.2703 192.386Z" fill="#263238"/>
<path d="M29.3506 194.63C29.2832 194.585 29.5199 194.21 30.0226 194.054C30.5239 193.894 30.942 194.062 30.9141 194.137C30.8949 194.22 30.5269 194.2 30.1164 194.335C29.7023 194.46 29.416 194.685 29.3506 194.63Z" fill="#263238"/>
<path d="M36.6693 134.769L36.1255 160.996L33.5504 197.633H26.9745C26.9745 197.633 24.0152 180.499 24.1521 171.54C24.2889 162.581 24.2033 159.29 24.1521 158.193C24.1009 157.096 20.9146 145.055 20.2116 136.074C19.5087 127.092 24.1521 124.732 24.1521 124.732L36.6693 134.769Z" fill="#CC725A"/>
<path d="M36.6696 134.769C36.6696 134.769 36.6037 134.709 36.4653 134.594C36.3219 134.477 36.1156 134.308 35.845 134.086C35.289 133.635 34.4736 132.974 33.4138 132.114C31.273 130.388 28.1496 127.869 24.1959 124.681L24.1579 124.65L24.1194 124.673C23.308 125.15 22.6446 125.857 22.0835 126.661C21.526 127.47 21.0841 128.391 20.7592 129.381C20.1364 131.37 19.9539 133.601 20.1151 135.912C20.4612 140.531 21.3699 145.56 22.4951 150.915C22.7865 152.253 23.0825 153.613 23.3835 154.994C23.5345 155.684 23.6871 156.38 23.8406 157.081C23.9106 157.428 23.9952 157.789 24.0337 158.129C24.0631 158.482 24.0652 158.848 24.0768 159.209C24.1381 162.115 24.1138 165.106 24.0829 168.166C24.0743 169.697 24.0216 171.241 24.0439 172.811C24.0408 173.595 24.0935 174.381 24.1164 175.172C24.1665 175.961 24.2172 176.754 24.2684 177.551C24.5112 180.735 24.8771 183.966 25.3023 187.236C25.765 190.779 26.2896 194.257 26.8602 197.651L26.8759 197.746H26.9748C29.2002 197.745 31.3937 197.745 33.5507 197.744H33.6576L33.6647 197.641C34.2906 188.659 34.8775 180.243 35.4051 172.669C35.6671 168.883 35.9144 165.308 36.145 161.978C36.219 161.147 36.2276 160.326 36.2413 159.522C36.257 158.718 36.2717 157.93 36.2869 157.158C36.3163 155.616 36.3442 154.14 36.3711 152.733C36.4724 147.116 36.553 142.624 36.6088 139.528C36.6326 137.99 36.6508 136.801 36.6635 135.989C36.6676 135.591 36.6711 135.287 36.6731 135.076C36.6741 134.871 36.6696 134.769 36.6696 134.769C36.6696 134.769 36.661 134.877 36.6534 135.084C36.6468 135.297 36.6371 135.604 36.625 136.005C36.6037 136.819 36.5728 138.012 36.5327 139.554C36.4603 142.647 36.3548 147.136 36.2231 152.748C36.1917 154.15 36.1582 155.624 36.1237 157.162C36.1065 157.931 36.0893 158.717 36.0715 159.519C36.0558 160.32 36.0452 161.138 35.9692 161.97C35.7315 165.299 35.4765 168.874 35.2059 172.659C34.6692 180.231 34.0727 188.646 33.4361 197.625L33.5501 197.522C31.3932 197.521 29.1997 197.521 26.9743 197.52L27.0888 197.614C26.5202 194.225 25.9966 190.746 25.5339 187.208C25.1087 183.941 24.7428 180.713 24.4995 177.535C24.4483 176.74 24.3976 175.949 24.347 175.162C24.3241 174.373 24.2709 173.589 24.2735 172.809C24.2502 171.25 24.3024 169.699 24.3094 168.169C24.3383 165.108 24.3601 162.116 24.2953 159.205C24.2831 158.84 24.2811 158.48 24.2507 158.114C24.2066 157.736 24.1234 157.394 24.0525 157.039C23.8979 156.337 23.7449 155.641 23.5923 154.95C23.2897 153.57 22.9917 152.211 22.6988 150.875C21.5666 145.525 20.6493 140.503 20.293 135.9C20.1272 133.605 20.3026 131.393 20.9118 129.426C21.2301 128.448 21.6624 127.54 22.2077 126.742C22.7525 125.951 23.4149 125.249 24.1838 124.792L24.1077 124.784C28.072 127.944 31.2041 130.44 33.3505 132.151C34.4234 133.002 35.2485 133.656 35.811 134.101C36.0888 134.319 36.3006 134.486 36.4481 134.601C36.592 134.714 36.6696 134.769 36.6696 134.769Z" fill="#844031"/>
<path d="M34.383 195.603L34.3871 196.095C34.3871 196.095 42.9684 199.407 43.0667 200.988L26.0576 200.976L26.2928 195.468C28.8208 196.61 31.4678 196.74 34.383 195.603Z" fill="#455A64"/>
<g opacity="0.6">
<path d="M28.0142 197.23C27.6848 197.317 27.4572 197.677 27.5333 198.001C27.6093 198.325 27.9833 198.553 28.3143 198.471C28.6452 198.39 28.9321 197.966 28.819 197.652C28.706 197.338 28.2519 197.094 27.9509 197.25" fill="white"/>
</g>
<g opacity="0.6">
<path d="M26.0576 200.976L26.1139 199.651L42.3957 200.148C42.3957 200.148 43.1529 200.469 43.0667 200.988L26.0576 200.976Z" fill="white"/>
</g>
<path d="M34.4469 196.141C34.4443 196.222 34.0287 196.259 33.6197 196.518C33.2042 196.767 32.9928 197.117 32.9168 197.085C32.8403 197.07 32.9644 196.587 33.4652 196.281C33.9629 195.971 34.4651 196.067 34.4469 196.141Z" fill="#263238"/>
<path d="M36.2303 196.861C36.2491 196.94 35.8892 197.077 35.6069 197.418C35.3145 197.752 35.243 198.122 35.1604 198.118C35.0824 198.131 35.0251 197.657 35.3844 197.238C35.7402 196.818 36.2288 196.784 36.2303 196.861Z" fill="#263238"/>
<path d="M37.2426 198.939C37.1671 198.957 37.052 198.553 37.2654 198.11C37.4757 197.667 37.8675 197.492 37.9025 197.559C37.9491 197.626 37.6967 197.863 37.5269 198.229C37.349 198.591 37.3252 198.932 37.2426 198.939Z" fill="#263238"/>
<path d="M44.3076 49.4106C42.3264 50.5993 41.0173 52.7847 40.9307 55.0485C40.8886 56.1479 41.0503 57.4263 40.2232 58.1764C39.4047 58.9192 37.9912 58.7367 37.2 59.5066C36.268 60.4131 36.7738 61.9741 36.3359 63.1835C35.9244 64.3184 34.5595 65.036 33.3584 64.7479C34.6528 66.0436 36.3212 66.9822 38.1209 67.4266C38.6576 66.8949 39.1943 66.3632 39.7311 65.8315C39.1269 66.3854 39.1523 67.3792 39.5932 68.0638C40.0341 68.7484 40.7883 69.1789 41.5454 69.5099C45.1636 71.0901 49.5485 70.8918 53.0009 68.9915" fill="#263238"/>
<path d="M64.2205 61.3991C64.0391 60.532 63.66 59.7049 63.5728 58.8246C63.3858 56.9316 64.5565 54.9563 63.8328 53.1901C63.3174 51.933 61.9895 51.1971 60.7159 50.6531C59.4423 50.1096 58.0648 49.6149 57.1921 48.5614C56.552 47.789 56.2534 46.7898 55.6159 46.0154C54.7072 44.9116 53.2328 44.4066 51.8016 44.1585C50.3319 43.9045 48.7856 43.871 47.3787 44.3578C45.9723 44.8446 44.7255 45.9138 44.3195 47.3121C44.1219 47.9937 44.1229 48.7315 43.8188 49.3747C43.4843 50.0824 42.8229 50.588 42.3759 51.2336C41.4312 52.5983 41.6187 54.6002 42.8016 55.776L51.4509 69.688C53.4928 70.7119 58.7769 70.3425 60.6085 68.9935C62.4406 67.6441 64.6787 63.589 64.2205 61.3991Z" fill="#263238"/>
<path d="M43.2631 54.1834C44.0253 51.3302 46.6973 48.1573 49.5937 49.0195L58.3757 53.0322C59.2556 53.2941 59.7837 54.1676 59.5906 55.0435L55.4834 76.2323C55.0232 76.3472 55.4975 76.2382 55.4834 76.2323C55.6025 76.2027 55.6906 76.3388 55.6096 76.429C54.3288 77.8564 48.3474 84.0535 43.2545 81.3858C42.1167 80.79 43.8667 77.2808 43.8875 75.9107L44.4556 72.4681C44.783 70.7147 44.926 69.9971 44.9214 70.0134C44.9214 70.0134 41.2516 68.6857 41.4249 63.7235C41.5111 61.255 42.4162 57.3527 43.2631 54.1834Z" fill="#CC725A"/>
<path d="M44.0631 58.6253C43.9866 58.9494 44.205 59.2793 44.5507 59.3637C44.8958 59.4475 45.2389 59.2542 45.3155 58.9306C45.392 58.6066 45.1736 58.2761 44.8284 58.1923C44.4828 58.1075 44.1402 58.3013 44.0631 58.6253Z" fill="#263238"/>
<path d="M50.2161 60.1635C50.1391 60.4875 50.3575 60.8175 50.7037 60.9018C51.0488 60.9856 51.3919 60.7923 51.4685 60.4683C51.545 60.1442 51.3266 59.8138 50.9814 59.7299C50.6358 59.6456 50.2932 59.8394 50.2161 60.1635Z" fill="#263238"/>
<path d="M43.4561 56.424C43.5124 56.5458 44.1515 56.2464 44.8843 56.4353C45.6197 56.6124 46.0368 57.1756 46.1453 57.0947C46.1975 57.0597 46.1625 56.8565 45.9831 56.604C45.8067 56.3534 45.4667 56.0664 45.009 55.952C44.5514 55.8385 44.113 55.9303 43.8368 56.0684C43.5555 56.206 43.4272 56.3682 43.4561 56.424Z" fill="#263238"/>
<path d="M50.0167 57.927C50.0922 58.0419 50.7273 57.6937 51.5255 57.817C52.3252 57.9279 52.8402 58.4448 52.9435 58.3565C52.9937 58.3176 52.9314 58.1218 52.7069 57.8895C52.4879 57.6582 52.0906 57.4061 51.5924 57.3326C51.0942 57.2601 50.6441 57.3874 50.371 57.5467C50.0932 57.705 49.9792 57.8747 50.0167 57.927Z" fill="#263238"/>
<path d="M46.9584 62.24C46.969 62.2025 46.559 62.0516 45.888 61.8361C45.7172 61.7857 45.5591 61.7206 45.5525 61.5993C45.5357 61.4691 45.6452 61.2999 45.7689 61.1184C46.0147 60.7387 46.2716 60.3406 46.5418 59.9239C47.6238 58.2199 48.4433 56.8048 48.3724 56.7629C48.3014 56.721 47.3668 58.0684 46.2843 59.773C46.0218 60.1942 45.7709 60.5951 45.5317 60.9794C45.4273 61.1599 45.2702 61.3572 45.3087 61.6284C45.3305 61.7641 45.44 61.88 45.5459 61.9308C45.6513 61.985 45.7486 62.0052 45.8342 62.0264C46.5195 62.1931 46.9482 62.277 46.9584 62.24Z" fill="#263238"/>
<path d="M44.9216 70.0135C44.9216 70.0135 48.2082 70.85 51.8897 69.543C51.8897 69.543 49.5518 72.6078 44.6899 71.2238L44.9216 70.0135Z" fill="#844031"/>
<path d="M48.828 64.4319C48.7529 64.2657 48.6724 64.0921 48.5229 63.9831C48.3581 63.8632 48.1387 63.8435 47.9334 63.8578C47.6349 63.878 47.3329 63.9658 47.1073 64.1567C46.8818 64.3475 46.7465 64.6538 46.8154 64.9369C46.8595 65.2259 47.271 65.4277 47.5589 65.511C47.8468 65.5944 48.1615 65.5451 48.4382 65.4316C48.6703 65.3364 48.903 65.1697 48.943 64.9276C48.9719 64.7579 48.8989 64.5897 48.828 64.4319Z" fill="#844031"/>
<path d="M48.7989 63.4724C48.689 63.4453 48.544 64.1659 47.8076 64.5585C47.0722 64.9525 46.2983 64.7227 46.2725 64.8223C46.2532 64.8657 46.4205 64.9959 46.7519 65.0675C47.0768 65.14 47.575 65.1276 48.025 64.8879C48.4746 64.6468 48.7244 64.2596 48.8086 63.9686C48.8978 63.6722 48.8506 63.4778 48.7989 63.4724Z" fill="#263238"/>
<path d="M50.2628 56.1168C50.2942 56.3102 50.9926 56.3531 51.7751 56.5982C52.5627 56.8281 53.1633 57.1777 53.3016 57.0357C53.3645 56.9671 53.2859 56.7763 53.0594 56.5519C52.8354 56.3284 52.4553 56.0848 51.9849 55.9418C51.5141 55.7997 51.0595 55.7913 50.7443 55.8515C50.427 55.9117 50.2506 56.0256 50.2628 56.1168Z" fill="#263238"/>
<path d="M44.4878 53.8051C44.5953 53.9816 45.1639 53.9269 45.8116 54.0413C46.4629 54.1365 46.9854 54.3678 47.1425 54.2337C47.213 54.1676 47.1567 53.9999 46.9464 53.812C46.7391 53.6251 46.3681 53.4347 45.9216 53.3622C45.4751 53.2907 45.0631 53.3548 44.8076 53.4667C44.5481 53.5787 44.4422 53.7202 44.4878 53.8051Z" fill="#263238"/>
<path d="M60.3132 53.9571C59.9341 53.2148 59.1481 52.767 58.3939 52.3823C55.1417 50.7217 51.6858 49.4403 48.1234 48.5737C47.5872 49.246 47.8872 50.2763 48.505 50.8785C49.1223 51.4807 49.9712 51.7865 50.7497 52.1737C51.5281 52.5613 52.3081 53.1108 52.5509 53.928C52.8089 54.7975 52.3923 55.746 52.6051 56.6264C52.9715 58.142 55.0028 58.8448 55.3601 60.3624C55.6303 61.5101 54.8351 62.6104 54.534 63.7507C54.1925 65.043 54.528 66.4871 55.4073 67.511C56.1006 68.3184 57.1188 68.8416 58.1887 68.9822C58.9306 64.8348 59.6721 60.6869 60.4141 56.5395C60.5687 55.6749 60.7141 54.7423 60.3132 53.9571Z" fill="#263238"/>
<path d="M67.7078 65.4741C67.1002 64.8072 66.3111 64.2006 66.1413 63.3252C65.8934 62.0492 67.0814 60.7161 66.5599 59.521C66.084 58.431 64.3193 58.2855 63.888 57.1783C63.551 56.3137 64.1343 55.6469 64.0547 54.9115C63.9747 54.1761 63.0036 53.4304 62.2439 53.4319L55.4065 61.0391C54.5343 63.7503 53.8121 65.1648 54.2317 66.8551C54.4618 67.7823 54.7968 68.6982 54.8171 69.652C54.8373 70.6054 54.4648 71.6421 53.6104 72.1087C57.082 72.7686 60.5765 71.3521 63.8145 69.9672C64.9569 69.4784 66.0992 68.9901 67.2416 68.5014C67.5984 68.3485 67.9704 68.1847 68.2086 67.8849C68.7686 67.1796 68.3155 66.1409 67.7078 65.4741Z" fill="#263238"/>
<path d="M64.0006 69.1414C64.0006 69.1414 63.8704 69.1725 63.618 69.1695C63.3671 69.1661 62.9885 69.135 62.5359 68.9722C62.0874 68.811 61.5542 68.5185 61.1082 68.0041C60.6612 67.4966 60.3414 66.7474 60.3419 65.8991C60.3435 65.4764 60.4256 65.032 60.6116 64.6044C60.7991 64.1748 61.1017 63.7906 61.4118 63.4103C61.719 63.0286 62.0514 62.6389 62.2384 62.1709C62.4234 61.7117 62.4908 61.148 62.2217 60.7041C61.9521 60.2528 61.3723 60.0851 60.8488 59.8079C60.5852 59.6693 60.3191 59.4706 60.1656 59.186C60.012 58.9019 59.9877 58.571 60.0303 58.2652C60.1119 57.6418 60.4524 57.1017 60.6389 56.534C60.7332 56.2499 60.7905 55.951 60.7474 55.664C60.7063 55.3769 60.5543 55.1126 60.3237 54.9158C59.8595 54.5074 59.2209 54.3792 58.6061 54.2564C57.9863 54.1424 57.3497 53.9323 56.8617 53.5368C56.366 53.156 55.9925 52.6485 55.7801 52.0946C55.5713 51.5348 55.5399 50.9553 55.5176 50.4093C55.4963 49.8619 55.4826 49.3302 55.3554 48.838C55.2277 48.3482 54.9809 47.9073 54.6743 47.5369C54.0453 46.8035 53.1939 46.3552 52.3769 46.1973C51.5543 46.0361 50.7759 46.1658 50.155 46.3941C49.5286 46.622 49.0431 46.9436 48.6873 47.2429C47.9752 47.8535 47.7396 48.332 47.7152 48.3127C47.7122 48.3107 47.7269 48.2821 47.7593 48.2279C47.7933 48.1746 47.8369 48.0908 47.9104 47.9911C48.0497 47.7874 48.2808 47.5004 48.6346 47.1847C48.9878 46.8711 49.4764 46.5337 50.1145 46.2896C50.747 46.0459 51.5477 45.8999 52.4053 46.0588C53.2552 46.2141 54.1426 46.6698 54.806 47.4314C55.1294 47.8161 55.3929 48.2777 55.5308 48.7946C55.6676 49.3115 55.6828 49.8565 55.7066 50.4015C55.731 50.9455 55.7664 51.5048 55.9641 52.0281C56.1653 52.5474 56.5191 53.0258 56.9863 53.3829C57.4506 53.7543 58.0304 53.9466 58.6482 54.0611C59.2564 54.1839 59.9411 54.3121 60.4611 54.7668C60.72 54.9858 60.904 55.302 60.9501 55.6344C60.9993 55.9678 60.9319 56.2953 60.833 56.5937C60.6318 57.1944 60.3024 57.7172 60.2294 58.2908C60.1899 58.5719 60.2132 58.8575 60.3414 59.0957C60.4697 59.334 60.6937 59.5081 60.9445 59.6412C61.1934 59.7783 61.4661 59.8834 61.724 60.0259C61.981 60.164 62.2324 60.3524 62.3844 60.6104C62.6941 61.1337 62.6038 61.7482 62.4062 62.235C62.1999 62.7381 61.8533 63.1341 61.5446 63.5134C61.2314 63.8912 60.9374 64.2611 60.7565 64.6655C60.5761 65.0705 60.493 65.4946 60.4869 65.9C60.4768 66.7138 60.7738 67.4379 61.1959 67.933C61.6176 68.4361 62.1295 68.7311 62.5638 68.8997C63.4533 69.2282 64.0077 69.1064 64.0006 69.1414Z" fill="#455A64"/>
<path d="M69.3694 63.7901C69.3694 63.7901 69.4297 63.8814 69.452 64.0816C69.4753 64.2784 69.4323 64.5941 69.2017 64.9102C69.0841 65.0631 68.9204 65.218 68.6989 65.3186C68.4789 65.4187 68.2088 65.4646 67.9275 65.4286C67.369 65.3718 66.7507 64.9714 66.5054 64.3085C66.3797 63.984 66.3346 63.6155 66.3787 63.2412C66.4238 62.8649 66.5688 62.4945 66.7583 62.1423C67.1237 61.4355 67.7131 60.7737 67.8262 59.9125C67.8855 59.4958 67.8383 59.0307 67.5581 58.6948C67.2824 58.352 66.809 58.2228 66.3306 58.1651C65.8521 58.0955 65.322 58.0965 64.8319 57.842C64.5917 57.7143 64.3859 57.5076 64.2689 57.261C64.1492 57.0154 64.1031 56.7451 64.1016 56.4803C64.1001 55.9412 64.2871 55.4524 64.4077 54.9785C64.5415 54.506 64.5674 54.0285 64.4929 53.5644C64.3418 52.6387 63.8132 51.8165 63.1088 51.2996C62.4023 50.7689 61.529 50.6224 60.743 50.4873C59.9508 50.3571 59.187 50.222 58.5657 49.8984C57.9428 49.5887 57.4624 49.1734 57.1096 48.7616C56.7523 48.3507 56.5263 47.9374 56.3768 47.5907C56.0838 46.8889 56.0879 46.4622 56.0879 46.4622C56.1137 46.4558 56.1396 46.88 56.4503 47.5601C56.6084 47.896 56.84 48.295 57.1968 48.6896C57.549 49.0851 58.0239 49.4812 58.6306 49.7726C59.2332 50.077 59.9751 50.2007 60.7713 50.3245C61.5579 50.4533 62.4651 50.5933 63.2223 51.1526C63.9698 51.6957 64.5283 52.5563 64.6915 53.5343C64.7726 54.0207 64.7437 54.541 64.6059 55.0273C64.4812 55.5131 64.3038 55.99 64.3069 56.4793C64.3003 56.9651 64.501 57.4519 64.9313 57.6684C65.3529 57.8923 65.8673 57.9017 66.3579 57.9712C66.8435 58.0309 67.3863 58.17 67.7116 58.5759C68.038 58.9749 68.0786 59.4933 68.0137 59.9382C67.9508 60.3919 67.7608 60.8092 67.5429 61.1722C67.3275 61.5396 67.0953 61.877 66.9093 62.2197C66.7213 62.5601 66.5819 62.9107 66.5358 63.2604C66.4902 63.6106 66.5287 63.9563 66.6412 64.2597C66.8607 64.8776 67.4222 65.2535 67.9427 65.3186C68.2027 65.357 68.4536 65.3196 68.6584 65.2328C68.8641 65.1455 69.0217 65.0054 69.1378 64.8643C69.3654 64.5728 69.4206 64.275 69.411 64.0851C69.4029 63.8907 69.3583 63.7936 69.3694 63.7901Z" fill="#263238"/>
<path d="M32.2052 61.6881C32.2381 61.6896 31.9766 61.9939 32.1109 62.5808C32.1803 62.8575 32.3704 63.2072 32.754 63.3813C33.1265 63.5539 33.679 63.5145 34.0804 63.1835C34.2811 63.0213 34.4149 62.7786 34.466 62.5034C34.5177 62.2282 34.4959 61.9283 34.4341 61.6255C34.3165 61.0272 34.0114 60.3569 34.1584 59.6107C34.2871 58.8857 34.7559 58.1814 35.4574 57.7597C35.805 57.5471 36.2004 57.3987 36.6154 57.3227C37.0325 57.2418 37.4649 57.2621 37.884 57.2882C38.3046 57.3139 38.7172 57.3494 39.11 57.301C39.5002 57.2552 39.8671 57.1042 40.12 56.8364C40.374 56.5696 40.5128 56.2174 40.5802 55.8658C40.6486 55.5107 40.6461 55.1541 40.6137 54.8039C40.5508 54.1065 40.4196 53.421 40.5356 52.7739C40.6471 52.1302 40.9684 51.5838 41.3577 51.1877C41.7489 50.7833 42.2193 50.5618 42.6105 50.3774C43.0068 50.1934 43.3449 50.0346 43.5958 49.8659C44.1097 49.5335 44.2318 49.1937 44.2546 49.2124C44.2577 49.2139 44.2506 49.2336 44.2328 49.2706C44.2131 49.3066 44.1918 49.3653 44.1431 49.4299C44.0575 49.566 43.8958 49.7505 43.6424 49.9295C43.3915 50.1125 43.0519 50.2846 42.6617 50.4775C42.274 50.6723 41.828 50.8947 41.4636 51.2849C41.0992 51.6681 40.8017 52.1929 40.7039 52.801C40.6005 53.4111 40.7318 54.0769 40.8022 54.7881C40.8377 55.1442 40.8438 55.523 40.7728 55.9003C40.7029 56.2752 40.5554 56.6638 40.267 56.9696C39.9791 57.2778 39.556 57.449 39.1353 57.4983C38.7116 57.5511 38.2884 57.5131 37.8698 57.488C37.4512 57.4618 37.0427 57.4436 36.6519 57.5185C36.2612 57.5891 35.8892 57.7281 35.5638 57.9259C34.9075 58.3175 34.4691 58.9705 34.3439 59.6433C34.2005 60.3244 34.4807 60.9661 34.6004 61.5944C34.6612 61.9106 34.6819 62.2302 34.6206 62.533C34.5618 62.8343 34.4027 63.113 34.1731 63.292C33.7165 63.6545 33.1139 63.6827 32.7034 63.4824C32.2817 63.2767 32.0937 62.8935 32.0318 62.5986C31.967 62.2943 32.0237 62.0496 32.0805 61.9007C32.1438 61.7503 32.2052 61.6881 32.2052 61.6881Z" fill="#263238"/>
<path d="M54.7231 115.426L26.1511 109.742C26.1511 109.742 22.0363 113.46 20.415 118.233C17.0554 128.121 22.7519 154.38 22.7519 154.38L37.0466 153.394L58.0078 152.254C58.0078 141.899 54.9173 121.525 54.9173 121.525L54.7231 115.426Z" fill="#263238"/>
<path d="M62.7517 77.5418L55.9006 74.6102C55.9006 74.6102 52.0154 78.1258 47.5179 76.7788C44.8921 75.9927 44.3214 73.2815 44.3214 73.2815L36.3011 73.7254L32.8112 88.5675L32.6982 97.027L25.0601 109.5C25.0601 109.5 34.6687 122.69 56.341 119.15L57.7048 102.631C57.7048 102.631 61.0392 93.7822 61.1907 90.8323C61.3422 87.8824 61.1907 84.3427 61.1907 84.3427L62.7517 77.5418Z" fill="#455A64" stroke="#263238" stroke-width="0.05" stroke-miterlimit="10"/>
<path d="M37.4777 96.774C37.4661 96.7849 37.609 96.9447 37.8781 97.2248C38.1447 97.5074 38.5516 97.8971 39.0711 98.3607C40.1091 99.2889 41.6397 100.478 43.4799 101.569C45.3232 102.658 47.1122 103.433 48.436 103.903C49.0979 104.139 49.6407 104.311 50.0213 104.411C50.4009 104.515 50.6123 104.565 50.6168 104.55C50.6214 104.535 50.4186 104.456 50.0492 104.327C49.6787 104.201 49.1466 104.006 48.4958 103.753C47.1938 103.247 45.4306 102.454 43.6015 101.375C41.775 100.291 40.2414 99.1326 39.1806 98.2403C38.6495 97.795 38.2273 97.4246 37.942 97.1622C37.6541 96.9018 37.4894 96.7632 37.4777 96.774Z" fill="#263238"/>
<g opacity="0.3">
<path d="M29.5664 102.14C30.5111 102.602 31.8825 102.384 32.6858 101.715C33.4891 101.046 33.9894 100.105 34.4698 99.1883C35.5711 97.0877 36.6719 94.9876 37.7732 92.887C41.6077 91.7556 45.8482 91.9791 49.5348 93.506C50.0968 93.7388 50.664 94.0135 51.0588 94.4673C51.6061 95.0966 51.7379 95.9637 51.8408 96.7819C52.0912 98.7686 52.3086 100.792 53.1033 102.638C53.8979 104.484 55.3799 106.163 57.3625 106.694L58.4415 97.7363L55.4381 90.6217L40.9823 88.0151L35.004 90.1996L30.9459 99.8393L29.5664 102.14Z" fill="black"/>
</g>
<path d="M61.9246 77.3274C61.9246 77.3274 65.3365 77.684 66.6962 82.0721C67.6942 85.2917 68.463 91.4795 68.463 91.4795L60.0737 91.914V84.0345L61.9246 77.3274Z" fill="#455A64" stroke="#263238" stroke-width="0.05" stroke-miterlimit="10"/>
<path d="M36.3013 73.7253C36.3013 73.7253 33.7748 73.6311 31.9528 75.3238C30.1309 77.0165 26.1514 83.4894 26.1514 83.4894L34.2452 86.1507L36.839 78.3062L36.3013 73.7253Z" fill="#455A64" stroke="#263238" stroke-width="0.05" stroke-miterlimit="10"/>
<path d="M62.3343 85.6318C62.3028 85.6215 62.1508 85.98 61.9177 86.562C61.6526 87.2254 61.346 87.9908 61.0079 88.8357C60.6608 89.6776 60.3466 90.4401 60.0739 91.1005C59.8352 91.6805 59.6943 92.043 59.7242 92.0568C59.7531 92.0697 59.9467 91.7303 60.2249 91.1656C60.5032 90.6009 60.8635 89.8088 61.2249 88.9195C61.5857 88.0303 61.8792 87.213 62.0728 86.6158C62.2674 86.0185 62.3642 85.6417 62.3343 85.6318Z" fill="#263238"/>
<path d="M35.3072 79.8702C35.2449 79.854 34.7264 81.5333 34.1487 83.6206C33.5714 85.7088 33.1538 87.4144 33.2161 87.4306C33.2785 87.4469 33.7969 85.768 34.3747 83.6798C34.952 81.5925 35.3696 79.8865 35.3072 79.8702Z" fill="#263238"/>
<path d="M51.934 75.5086L50.8058 87.3481C50.7673 87.7496 50.3948 88.0445 49.9661 88.0129L42.1449 87.4379C41.7116 87.4058 41.3822 87.0527 41.406 86.6458L42.1449 74.2006C42.1708 73.7671 42.5859 73.4515 43.0445 73.5175L51.2549 74.6983C51.673 74.758 51.9715 75.1146 51.934 75.5086Z" fill="#263238"/>
<path d="M47.2817 81.1046C47.4874 81.1559 51.8952 82.7075 51.8952 82.7075L57.7544 87.0102L60.0736 91.9137L55.7991 96.979L54.9482 91.8106C54.9482 91.8106 53.293 92.0563 51.9286 91.6903C50.5643 91.3248 46.2315 90.2432 46.2315 90.2432L44.1825 88.6729C44.1825 88.6729 43.661 87.4324 43.7183 87.1232C43.775 86.814 44.1739 86.5003 44.5905 86.8288C45.0071 87.1567 48.1666 87.7718 49.016 87.6006C49.016 87.6006 44.4501 86.4815 43.9864 85.6677C43.5226 84.8544 43.8232 84.3321 44.5499 84.4589C45.2767 84.5856 47.8503 85.4177 48.6541 85.4941C49.4579 85.5706 50.4487 85.7432 50.7153 85.4068C50.9819 85.0705 50.4442 84.6572 50.4442 84.6572L49.6997 83.8887C49.6997 83.8887 46.4338 82.7445 46.3608 82.0293C46.2888 81.3142 46.9593 81.0242 47.2817 81.1046Z" fill="#CC725A"/>
<path d="M45.7785 80.6162C45.7785 80.6162 41.8072 80.5289 41.5213 80.7148C41.2355 80.9008 35.3433 85.6346 35.3433 85.6346L33.9673 86.4844L36.3017 90.8774L36.9818 90.6367C36.9818 90.6367 41.2502 89.3376 41.7392 89.1872C42.2283 89.0367 43.1989 89.0096 43.1989 89.0096C43.1989 89.0096 47.7095 89.1285 48.085 88.6831C48.4611 88.2377 48.3192 88.0952 48.008 87.962C47.6968 87.8289 45.0188 87.6513 44.4147 87.6498C43.8106 87.6488 42.6662 87.345 42.6662 87.345C42.6662 87.345 44.5632 87.2651 45.0006 87.2015C45.438 87.1379 49.68 86.9958 49.7413 86.2994C49.8026 85.6025 49.3394 85.2642 46.6634 85.4664C43.9875 85.6681 42.2339 85.3638 42.2339 85.3638L48.2259 84.5027C48.2259 84.5027 50.6292 84.2146 50.0094 83.4773C49.3896 82.7404 44.2789 83.1458 44.2789 83.1458L41.9835 83.5315L42.8177 82.4193C42.8177 82.4193 46.0395 82.1027 46.485 81.8842C47.037 81.6139 47.1662 81.2968 46.8545 80.9387C46.5428 80.5802 45.7785 80.6162 45.7785 80.6162Z" fill="#CC725A"/>
<path d="M26.8482 83.7188L33.4378 85.8953L33.1078 87.3917L34.4144 86.2065L36.3008 90.8782C36.3008 90.8782 34.8158 93.5824 34.01 95.0788C31.852 99.0866 28.7386 103.45 26.0429 102.729C22.8089 101.864 21.8333 98.2551 22.3269 95.902C22.776 93.7624 26.8482 83.7188 26.8482 83.7188Z" fill="#CC725A"/>
<path d="M67.9674 91.5048L61.9125 91.8639L60.0738 91.9142L58.8792 89.3633L55.3589 93.7346C55.3589 93.7346 55.777 96.7732 55.9939 98.4497C56.5737 102.939 57.9208 108.086 60.7047 108.33C64.0446 108.622 67.1266 105.393 67.5107 103.021C67.8599 100.863 67.9674 91.5048 67.9674 91.5048Z" fill="#CC725A"/>
<path d="M35.3418 85.617C35.3418 85.617 35.3945 85.5677 35.5025 85.4769C35.616 85.3837 35.7761 85.2515 35.9849 85.0799C36.4167 84.7302 37.0447 84.2217 37.8495 83.5692C38.6639 82.9171 39.6568 82.1221 40.8067 81.2013C40.9517 81.0873 41.0997 80.9714 41.2497 80.8536C41.3247 80.7949 41.4012 80.7357 41.4823 80.677C41.5852 80.6203 41.6957 80.6148 41.795 80.5996C42.2035 80.5596 42.6227 80.5512 43.054 80.5428C43.9171 80.5305 44.8278 80.5384 45.7841 80.5562H45.7796C46.0208 80.5512 46.2626 80.5749 46.5018 80.6513C46.6199 80.6908 46.738 80.7456 46.8378 80.8304C46.9371 80.9192 47.0091 81.0183 47.0573 81.1416C47.1064 81.2629 47.0943 81.4109 47.0279 81.5258C46.9615 81.6407 46.8611 81.727 46.7557 81.7995C46.6467 81.8701 46.5428 81.9347 46.407 81.9771C46.2803 82.0146 46.1541 82.0412 46.0269 82.0659C45.0082 82.2484 43.9373 82.3608 42.8284 82.4772L42.8781 82.4501C42.6201 82.7938 42.3338 83.1756 42.0434 83.5623L41.9704 83.4557C42.688 83.3354 43.4695 83.2047 44.2657 83.071L44.2728 83.07C45.2393 83.001 46.2301 82.9571 47.2453 82.961C47.7526 82.965 48.2665 82.9793 48.785 83.034C49.044 83.0626 49.3045 83.0996 49.5634 83.1707C49.6922 83.2076 49.8229 83.2496 49.9446 83.3285C50.0672 83.4099 50.1681 83.5272 50.1878 83.6836C50.2046 83.8488 50.0885 83.978 49.9816 84.0584C49.8691 84.1413 49.7464 84.1995 49.6217 84.2503C49.3714 84.3494 49.1114 84.416 48.8493 84.4717C48.3213 84.5798 47.7876 84.6325 47.2549 84.7154C46.1866 84.8678 45.103 85.0222 44.0078 85.178C43.4153 85.2624 42.8264 85.3462 42.2451 85.4291L42.2456 85.2811C43.6196 85.4784 45.0057 85.4878 46.3442 85.4098C47.0147 85.3674 47.6852 85.3146 48.3522 85.3437C48.6846 85.3605 49.0227 85.3871 49.345 85.5154C49.5026 85.579 49.6628 85.687 49.7434 85.8473C49.8229 86.0091 49.831 86.1699 49.8072 86.339C49.7844 86.4441 49.7069 86.5082 49.6385 86.557C49.5675 86.6068 49.492 86.6433 49.416 86.6744C49.2639 86.737 49.1088 86.7824 48.9538 86.8204C48.6431 86.8978 48.3304 86.9476 48.0202 86.9925C47.3989 87.0798 46.7831 87.1336 46.1774 87.1785C45.8749 87.1992 45.5743 87.2204 45.2768 87.2406C44.9849 87.2608 44.6859 87.3042 44.393 87.3161C43.8066 87.3531 43.2308 87.3787 42.6657 87.4024L42.6799 87.2742C43.3215 87.4325 43.9586 87.5898 44.5911 87.5859C45.2322 87.611 45.8541 87.6554 46.4618 87.7057C46.7653 87.7314 47.0649 87.7585 47.3603 87.7935C47.5083 87.8108 47.6548 87.8305 47.8013 87.8547C47.8748 87.8685 47.9482 87.8818 48.0278 87.9099C48.0957 87.94 48.1646 87.9715 48.229 88.0189C48.2934 88.0628 48.3537 88.1397 48.3618 88.2256C48.3714 88.3104 48.343 88.3839 48.3116 88.4485C48.2802 88.5141 48.2391 88.5708 48.1981 88.627L48.1332 88.7079C48.1094 88.7326 48.0714 88.7701 48.039 88.7834C47.7648 88.9126 47.4891 88.9313 47.2184 88.9683C46.1344 89.0753 45.1172 89.068 44.177 89.065C43.9419 89.0615 43.7118 89.0581 43.4863 89.0546C43.2597 89.0453 43.0464 89.0472 42.8305 89.0645C42.4037 89.0946 41.9947 89.1306 41.6323 89.2499C40.1565 89.6894 38.9939 90.0351 38.1941 90.2734C37.8008 90.3883 37.4973 90.4766 37.2859 90.5382C37.1866 90.5663 37.1096 90.5875 37.0523 90.6038C36.9996 90.6181 36.9727 90.6245 36.9722 90.6225C36.9717 90.6211 36.9975 90.6112 37.0487 90.5939C37.1055 90.5752 37.181 90.5505 37.2793 90.519C37.4892 90.4529 37.7907 90.3582 38.1804 90.2354C38.9772 89.9893 40.1352 89.6317 41.606 89.1774C42.3571 88.9412 43.2435 88.9585 44.176 88.9728C45.1131 88.9708 46.1318 88.9728 47.2027 88.8623C47.4642 88.8278 47.7516 88.7982 47.9761 88.6897C48.007 88.6754 48.0162 88.6615 48.04 88.6393L48.1008 88.5624C48.1388 88.5101 48.1768 88.4569 48.2027 88.4011C48.262 88.2872 48.262 88.1792 48.154 88.1092C48.1038 88.0727 48.0415 88.0431 47.9776 88.0154C47.9204 87.9962 47.8504 87.9824 47.78 87.9696C47.6381 87.9464 47.4926 87.9276 47.3461 87.9114C47.0527 87.8778 46.7542 87.8517 46.4511 87.827C45.846 87.7787 45.2226 87.7363 44.5871 87.7131C43.9378 87.7185 43.2901 87.5602 42.6424 87.4019C42.6054 87.3925 42.5826 87.3575 42.5917 87.3225C42.5993 87.2944 42.6252 87.2751 42.6546 87.2737H42.6566C43.2202 87.249 43.7959 87.2214 44.3798 87.1839C44.6737 87.1711 44.9591 87.1282 45.2626 87.1065C45.5601 87.0852 45.8602 87.064 46.1627 87.0423C46.7664 86.9965 47.3796 86.9417 47.9949 86.8544C48.302 86.8096 48.6111 86.7592 48.9122 86.6838C49.0632 86.6468 49.2122 86.6029 49.3516 86.5447C49.4824 86.4885 49.638 86.4076 49.6562 86.3099C49.6744 86.1832 49.6658 86.0268 49.6045 85.9114C49.5447 85.7916 49.4226 85.7067 49.2832 85.65C48.9999 85.5366 48.6699 85.5065 48.3461 85.4917C47.6923 85.4636 47.0299 85.5164 46.3563 85.5593C45.0062 85.6382 43.6196 85.6313 42.2182 85.43C42.1746 85.4236 42.1442 85.3857 42.1503 85.3452C42.1554 85.3122 42.1827 85.2875 42.2162 85.2826L42.2187 85.2821C42.8005 85.1992 43.3895 85.1154 43.9819 85.031C45.0777 84.8752 46.1612 84.7208 47.2301 84.5689C47.7633 84.486 48.3 84.4328 48.8124 84.3282C49.0688 84.274 49.3222 84.2089 49.5579 84.1152C49.6749 84.0678 49.788 84.0131 49.8817 83.944C49.974 83.874 50.0424 83.7862 50.0307 83.6964C50.0034 83.4937 49.7611 83.3734 49.5199 83.3127C49.2771 83.2461 49.0222 83.2091 48.7688 83.1805C48.2599 83.1258 47.7501 83.111 47.2463 83.1065C46.2377 83.1011 45.2479 83.1435 44.2875 83.2106L44.2941 83.2096C43.4979 83.3418 42.7159 83.471 41.9978 83.5899C41.9587 83.5963 41.9207 83.5721 41.9131 83.5351C41.9091 83.5164 41.9141 83.4977 41.9248 83.4833C42.2157 83.0977 42.503 82.7169 42.762 82.3731C42.7737 82.3574 42.7924 82.348 42.8117 82.346C43.9176 82.2331 44.992 82.1221 45.9985 81.945C46.1237 81.9214 46.2474 81.8947 46.3634 81.8612C46.4709 81.8296 46.5814 81.764 46.6777 81.7014C46.8738 81.5761 47.0213 81.3783 46.9361 81.1796C46.8621 80.9778 46.6792 80.8269 46.4607 80.7623C46.2448 80.6918 46.0087 80.6676 45.7862 80.6716H45.7831H45.7821C44.8278 80.6504 43.9171 80.639 43.0565 80.6474C42.6267 80.6538 42.2071 80.6602 41.8077 80.6977C41.7084 80.712 41.6111 80.7199 41.5411 80.7569C41.4646 80.8146 41.3886 80.8713 41.3131 80.928C41.1625 81.0449 41.014 81.1598 40.8686 81.2728C39.7115 82.1852 38.7121 82.9734 37.8926 83.6195C37.0781 84.2616 36.4431 84.7622 36.0062 85.1065C35.7924 85.2727 35.6281 85.4009 35.5121 85.4912C35.4026 85.576 35.3418 85.617 35.3418 85.617Z" fill="#844031"/>
<path d="M34.1624 86.4343C34.2009 86.4772 31.7642 88.4688 28.7197 90.8816C25.6743 93.2953 23.1747 95.2169 23.1362 95.1735C23.0977 95.1305 25.5339 93.1395 28.5794 90.7257C31.6233 88.3129 34.1234 86.3914 34.1624 86.4343Z" fill="#844031"/>
<path d="M64.1854 100.496C64.1499 100.502 64.0207 99.9337 63.6958 99.0479C63.3725 98.1621 62.8342 96.9681 62.1445 95.6892C61.4592 94.4078 60.7887 93.269 60.3356 92.4281C60.1071 92.0084 59.9312 91.6646 59.8172 91.4234C59.7042 91.1818 59.6474 91.0461 59.6606 91.0402C59.6732 91.0348 59.7538 91.1601 59.8881 91.3909C60.0452 91.6577 60.2373 91.9827 60.4629 92.3659C60.9474 93.1896 61.6382 94.3186 62.3264 95.6058C63.0197 96.8901 63.5422 98.1044 63.8326 99.008C63.9771 99.4598 64.079 99.8302 64.1256 100.09C64.1778 100.35 64.1996 100.493 64.1854 100.496Z" fill="#844031"/>
</svg>
