<svg width="20" height="20" viewBox="0 0 20 20" fill="none" xmlns="http://www.w3.org/2000/svg">
<path fill-rule="evenodd" clip-rule="evenodd" d="M9.99964 4.58331C7.92857 4.58331 6.24964 6.26224 6.24964 8.33331C6.24964 10.4044 7.92857 12.0833 9.99964 12.0833C12.0707 12.0833 13.7496 10.4044 13.7496 8.33331C13.7496 6.26224 12.0707 4.58331 9.99964 4.58331ZM7.91631 8.33331C7.91631 7.18271 8.84905 6.24997 9.99964 6.24997C11.1502 6.24997 12.083 7.18271 12.083 8.33331C12.083 9.4839 11.1502 10.4166 9.99964 10.4166C8.84905 10.4166 7.91631 9.4839 7.91631 8.33331Z" fill="#34383B"/>
<path fill-rule="evenodd" clip-rule="evenodd" d="M6.50734 2.9933C8.62211 1.58345 11.3772 1.58345 13.4919 2.9933C16.351 4.89935 17.1537 8.74581 15.2956 11.6363L12.1026 16.6031C11.1185 18.1339 8.88078 18.1339 7.89669 16.6031L4.70372 11.6363C2.84558 8.74582 3.64826 4.89935 6.50734 2.9933ZM7.43184 4.38005C8.98677 3.34342 11.0125 3.34342 12.5674 4.38005C14.6696 5.78152 15.2598 8.60973 13.8936 10.735L10.7006 15.7018C10.3726 16.2121 9.62669 16.2121 9.29866 15.7018L6.10569 10.735C4.73944 8.60973 5.32963 5.78152 7.43184 4.38005Z" fill="#34383B"/>
</svg>
