<svg width="29" height="22" viewBox="0 0 29 22" fill="none" xmlns="http://www.w3.org/2000/svg">
<g clip-path="url(#clip0_220_3329)">
<path d="M5.63267 21.7746V20.334C5.63267 19.7817 5.29645 19.4216 4.72016 19.4216C4.43206 19.4216 4.11991 19.5177 3.90378 19.8298C3.73578 19.5657 3.4957 19.4216 3.13553 19.4216C2.89534 19.4216 2.65538 19.4936 2.4632 19.7578V19.4697H1.95898V21.7746H2.4632V20.502C2.4632 20.094 2.67933 19.9018 3.01555 19.9018C3.35155 19.9018 3.51977 20.1179 3.51977 20.502V21.7746H4.02398V20.502C4.02398 20.094 4.26395 19.9018 4.57611 19.9018C4.91233 19.9018 5.08033 20.1179 5.08033 20.502V21.7746H5.63267ZM13.0998 19.4697H12.2835V18.7734H11.7793V19.4697H11.3231V19.9258H11.7792V20.9823C11.7792 21.5106 11.9953 21.8226 12.5716 21.8226C12.7878 21.8226 13.0277 21.7507 13.196 21.6546L13.0518 21.2224C12.9078 21.3184 12.7397 21.3425 12.6197 21.3425C12.3796 21.3425 12.2835 21.1984 12.2835 20.9583V19.9258H13.0998V19.4697ZM17.3737 19.4215C17.0857 19.4215 16.8936 19.5657 16.7735 19.7578V19.4697H16.2693V21.7746H16.7735V20.4781C16.7735 20.094 16.9415 19.8778 17.2537 19.8778C17.3497 19.8778 17.4698 19.9019 17.5658 19.9259L17.7099 19.4457C17.6138 19.4216 17.4698 19.4216 17.3737 19.4216V19.4215ZM10.9149 19.6617C10.6747 19.4936 10.3386 19.4216 9.97847 19.4216C9.40228 19.4216 9.01816 19.7097 9.01816 20.1659C9.01816 20.5502 9.30625 20.7662 9.81047 20.8383L10.0505 20.8623C10.3147 20.9102 10.4587 20.9823 10.4587 21.1024C10.4587 21.2704 10.2667 21.3905 9.93045 21.3905C9.59434 21.3905 9.3302 21.2704 9.16209 21.1504L8.92202 21.5345C9.18616 21.7266 9.54633 21.8226 9.90639 21.8226C10.5787 21.8226 10.963 21.5106 10.963 21.0783C10.963 20.6702 10.6508 20.454 10.1705 20.3821L9.93045 20.358C9.71433 20.3339 9.54633 20.286 9.54633 20.142C9.54633 19.9739 9.71433 19.8778 9.97847 19.8778C10.2667 19.8778 10.5548 19.9978 10.6988 20.0699L10.9149 19.6617ZM24.3128 19.4216C24.0246 19.4216 23.8326 19.5657 23.7125 19.7578V19.4697H23.2083V21.7746H23.7125V20.4781C23.7125 20.094 23.8806 19.8778 24.1926 19.8778C24.2888 19.8778 24.4089 19.9019 24.5049 19.9259L24.6489 19.4457C24.5529 19.4216 24.4089 19.4216 24.3128 19.4216ZM17.878 20.6221C17.878 21.3184 18.3581 21.8226 19.1025 21.8226C19.4386 21.8226 19.6787 21.7507 19.9188 21.5586L19.6787 21.1504C19.4867 21.2945 19.2946 21.3664 19.0785 21.3664C18.6703 21.3664 18.3822 21.0783 18.3822 20.6221C18.3822 20.19 18.6703 19.9018 19.0785 19.8778C19.2946 19.8778 19.4867 19.9498 19.6787 20.094L19.9188 19.6858C19.6787 19.4936 19.4386 19.4216 19.1025 19.4216C18.3581 19.4216 17.878 19.9259 17.878 20.6221ZM22.536 20.6221V19.4697H22.0318V19.7578C21.8637 19.5417 21.6236 19.4216 21.3115 19.4216C20.6632 19.4216 20.159 19.9259 20.159 20.6221C20.159 21.3184 20.6632 21.8226 21.3115 21.8226C21.6476 21.8226 21.8878 21.7027 22.0318 21.4865V21.7746H22.536V20.6221ZM20.6872 20.6221C20.6872 20.214 20.9513 19.8778 21.3834 19.8778C21.7916 19.8778 22.0798 20.19 22.0798 20.6221C22.0798 21.0303 21.7916 21.3664 21.3834 21.3664C20.9513 21.3424 20.6872 21.0303 20.6872 20.6221ZM14.6606 19.4216C13.9883 19.4216 13.508 19.9018 13.508 20.6221C13.508 21.3425 13.9882 21.8226 14.6845 21.8226C15.0207 21.8226 15.3569 21.7266 15.621 21.5106L15.3808 21.1504C15.1888 21.2945 14.9487 21.3905 14.7086 21.3905C14.3965 21.3905 14.0843 21.2465 14.0122 20.8382H15.717V20.6462C15.7411 19.9018 15.309 19.4216 14.6606 19.4216ZM14.6606 19.8538C14.9726 19.8538 15.1889 20.046 15.2368 20.4061H14.0363C14.0843 20.094 14.3004 19.8538 14.6606 19.8538ZM27.17 20.6221V18.5573H26.6658V19.7578C26.4977 19.5417 26.2576 19.4216 25.9455 19.4216C25.2972 19.4216 24.793 19.9259 24.793 20.6221C24.793 21.3184 25.2972 21.8226 25.9455 21.8226C26.2817 21.8226 26.5218 21.7027 26.6658 21.4865V21.7746H27.17V20.6221ZM25.3213 20.6221C25.3213 20.214 25.5853 19.8778 26.0175 19.8778C26.4257 19.8778 26.7138 20.19 26.7138 20.6221C26.7138 21.0303 26.4257 21.3664 26.0175 21.3664C25.5853 21.3424 25.3213 21.0303 25.3213 20.6221ZM8.46581 20.6221V19.4697H7.96159V19.7578C7.79348 19.5417 7.55341 19.4216 7.24125 19.4216C6.59298 19.4216 6.08877 19.9259 6.08877 20.6221C6.08877 21.3184 6.59298 21.8226 7.24125 21.8226C7.57747 21.8226 7.81755 21.7027 7.96159 21.4865V21.7746H8.46581V20.6221ZM6.59298 20.6221C6.59298 20.214 6.85713 19.8778 7.28927 19.8778C7.69745 19.8778 7.98566 20.19 7.98566 20.6221C7.98566 21.0303 7.69745 21.3664 7.28927 21.3664C6.85713 21.3424 6.59298 21.0303 6.59298 20.6221Z" fill="black"/>
<path d="M10.748 1.96594H18.3113V15.5559H10.748V1.96594Z" fill="#FF5F00"/>
<path d="M11.2277 8.76098C11.2277 5.99981 12.5242 3.55069 14.517 1.96595C13.0525 0.813469 11.2038 0.117188 9.18688 0.117188C4.40861 0.117188 0.542969 3.98283 0.542969 8.76098C0.542969 13.539 4.40861 17.4048 9.18677 17.4048C11.2036 17.4048 13.0524 16.7085 14.517 15.5559C12.5242 13.9952 11.2277 11.5222 11.2277 8.76098Z" fill="#EB001B"/>
<path d="M28.5151 8.76098C28.5151 13.539 24.6495 17.4048 19.8713 17.4048C17.8544 17.4048 16.0057 16.7085 14.541 15.5559C16.5579 13.9713 17.8305 11.5222 17.8305 8.76098C17.8305 5.99981 16.5338 3.55069 14.541 1.96595C16.0055 0.813469 17.8544 0.117188 19.8713 0.117188C24.6495 0.117188 28.5151 4.00689 28.5151 8.76098Z" fill="#F79E1B"/>
</g>
<defs>
<clipPath id="clip0_220_3329">
<rect width="28" height="21.7656" fill="white" transform="translate(0.542969 0.117188)"/>
</clipPath>
</defs>
</svg>
