<svg width="38" height="38" viewBox="0 0 38 38" fill="none" xmlns="http://www.w3.org/2000/svg">
<rect x="0.25" y="0.25" width="37.5" height="37.5" rx="18.75" stroke="#BDBDBD" stroke-width="0.5"/>
<path fill-rule="evenodd" clip-rule="evenodd" d="M20.0004 10C20.0004 9.44772 19.5526 9 19.0004 9C18.4481 9 18.0004 9.44772 18.0004 10V10.5709C14.6082 11.0559 12.0004 13.9722 12.0004 17.4989L12.0004 21.4993C12.0003 21.4993 12.0004 21.4991 12.0004 21.4993C12.0003 21.5012 11.9996 21.5146 11.9952 21.5409C11.99 21.5724 11.9808 21.6152 11.9655 21.6703C11.9346 21.782 11.8854 21.9211 11.8166 22.0855C11.6788 22.4151 11.4844 22.7947 11.2694 23.1776C10.8653 23.8975 10.6616 24.7554 10.8145 25.5712C10.9758 26.4316 11.5296 27.1819 12.4754 27.542C13.3203 27.8637 14.445 28.1579 15.9302 28.333C15.9656 28.3637 16.0073 28.3987 16.0553 28.4371C16.2056 28.5574 16.4204 28.7132 16.6917 28.8682C17.2303 29.176 18.0266 29.5 19.0004 29.5C19.9741 29.5 20.7704 29.176 21.309 28.8682C21.5804 28.7132 21.7951 28.5574 21.9454 28.4371C21.9934 28.3987 22.0352 28.3637 22.0705 28.333C23.5557 28.1579 24.6804 27.8637 25.5253 27.542C26.4711 27.1819 27.0249 26.4316 27.1862 25.5712C27.3391 24.7554 27.1354 23.8975 26.7313 23.1776C26.5163 22.7947 26.3219 22.4151 26.1841 22.0855C26.1153 21.9211 26.0661 21.782 26.0352 21.6703C26.0199 21.6152 26.0107 21.5724 26.0055 21.5409C26.0011 21.5146 26.0005 21.5015 26.0004 21.4996C26.0004 21.4994 26.0004 21.4996 26.0004 21.4996L26.0004 21.4911V17.4994C26.0004 13.9728 23.3925 11.056 20.0004 10.5709V10ZM14.0004 17.4989C14.0004 14.7377 16.2387 12.5 19.0004 12.5C21.7619 12.5 24.0004 14.7381 24.0004 17.4994V21.5C24.0004 21.9629 24.1738 22.4623 24.3389 22.8571C24.5183 23.2861 24.7534 23.74 24.9873 24.1566C25.2146 24.5616 25.2689 24.9444 25.2204 25.2027C25.1803 25.4166 25.0735 25.574 24.8136 25.6729C23.7387 26.0822 21.9243 26.5 19.0004 26.5C16.0764 26.5 14.262 26.0822 13.1871 25.6729C12.9272 25.574 12.8204 25.4166 12.7803 25.2027C12.7318 24.9444 12.7861 24.5616 13.0134 24.1566C13.2473 23.74 13.4824 23.2861 13.6618 22.8571C13.8269 22.4623 14.0004 21.9629 14.0004 21.5V17.4989Z" fill="#4F4F4F"/>
</svg>
