<svg width="18" height="19" viewBox="0 0 18 19" fill="none" xmlns="http://www.w3.org/2000/svg">
<path d="M4 9.5C4 6.73858 6.23858 4.5 9 4.5C11.7614 4.5 14 6.73858 14 9.5C14 12.2614 11.7614 14.5 9 14.5C6.23858 14.5 4 12.2614 4 9.5Z" fill="#F18E00"/>
<path fill-rule="evenodd" clip-rule="evenodd" d="M9 18.5C13.9706 18.5 18 14.4706 18 9.5C18 4.52944 13.9706 0.5 9 0.5C4.02944 0.5 0 4.52944 0 9.5C0 14.4706 4.02944 18.5 9 18.5ZM9 2.5C5.13401 2.5 2 5.63401 2 9.5C2 13.366 5.13401 16.5 9 16.5C12.866 16.5 16 13.366 16 9.5C16 5.63401 12.866 2.5 9 2.5Z" fill="#F18E00"/>
</svg>
