<svg width="20" height="20" viewBox="0 0 20 20" fill="none" xmlns="http://www.w3.org/2000/svg">
<path d="M6.24996 3.33268C6.7102 3.33268 7.08329 2.95959 7.08329 2.49935C7.08329 2.03911 6.7102 1.66602 6.24996 1.66602H4.99996C3.15901 1.66602 1.66663 3.1584 1.66663 4.99935V14.9993C1.66663 16.8403 3.15901 18.3327 4.99996 18.3327H6.24996C6.7102 18.3327 7.08329 17.9596 7.08329 17.4993C7.08329 17.0391 6.7102 16.666 6.24996 16.666H4.99996C4.07949 16.666 3.33329 15.9198 3.33329 14.9993L3.33329 4.99935C3.33329 4.07887 4.07949 3.33268 4.99996 3.33268H6.24996Z" fill="#828282"/>
<path d="M18.9225 10.5886C19.248 10.2632 19.248 9.73553 18.9225 9.41009L15.5892 6.07676C15.2638 5.75132 14.7361 5.75132 14.4107 6.07676C14.0853 6.4022 14.0853 6.92983 14.4107 7.25527L16.3214 9.16602L6.66663 9.16601C6.20639 9.16601 5.83329 9.53911 5.83329 9.99935C5.83329 10.4596 6.20639 10.8327 6.66663 10.8327H16.3214L14.4107 12.7434C14.0853 13.0689 14.0853 13.5965 14.4107 13.9219C14.7361 14.2474 15.2638 14.2474 15.5892 13.9219L18.9225 10.5886Z" fill="#828282"/>
</svg>
