<svg width="57" height="57" viewBox="0 0 57 57" fill="none" xmlns="http://www.w3.org/2000/svg">
<circle cx="28.543" cy="28.5" r="28" fill="#F0F2F5"/>
<path d="M21.5423 25.5833C21.5423 22.0395 24.4152 19.1667 27.959 19.1667C31.0981 19.1667 33.713 21.4221 34.2672 24.4011C34.3449 24.8189 34.6436 25.1614 35.0469 25.2951C37.3695 26.0654 39.0423 28.2555 39.0423 30.8333C39.0423 34.055 36.4306 36.6667 33.209 36.6667C32.5647 36.6667 32.0423 37.189 32.0423 37.8333C32.0423 38.4777 32.5647 39 33.209 39C37.7193 39 41.3757 35.3437 41.3757 30.8333C41.3757 27.4588 39.3296 24.5648 36.413 23.3195C35.415 19.5843 32.0094 16.8333 27.959 16.8333C23.1265 16.8333 19.209 20.7509 19.209 25.5833C19.209 25.7003 19.2113 25.8168 19.2159 25.9328C17.1212 27.1413 15.709 29.4047 15.709 32C15.709 35.866 18.843 39 22.709 39C23.3533 39 23.8757 38.4777 23.8757 37.8333C23.8757 37.189 23.3533 36.6667 22.709 36.6667C20.1317 36.6667 18.0423 34.5773 18.0423 32C18.0423 30.0664 19.2185 28.4049 20.8991 27.697C21.3854 27.4921 21.6736 26.9863 21.602 26.4635C21.5627 26.1763 21.5423 25.8825 21.5423 25.5833Z" fill="#475367"/>
<path d="M27.7672 31.128C28.2093 30.7351 28.8754 30.7351 29.3174 31.128L31.0674 32.6836C31.549 33.1117 31.5924 33.8491 31.1643 34.3307C30.7898 34.752 30.1786 34.8379 29.709 34.5662V40.1667C29.709 40.811 29.1867 41.3333 28.5423 41.3333C27.898 41.3333 27.3757 40.811 27.3757 40.1667V34.5662C26.9061 34.8379 26.2948 34.752 25.9203 34.3307C25.4923 33.8491 25.5356 33.1117 26.0172 32.6836L27.7672 31.128Z" fill="#475367"/>
</svg>
