<svg width="20" height="20" viewBox="0 0 20 20" fill="none" xmlns="http://www.w3.org/2000/svg">
<path fill-rule="evenodd" clip-rule="evenodd" d="M10.0002 1.66675C7.69898 1.66675 5.8335 3.53223 5.8335 5.83341C5.8335 8.1346 7.69898 10.0001 10.0002 10.0001C12.3013 10.0001 14.1668 8.1346 14.1668 5.83341C14.1668 3.53223 12.3013 1.66675 10.0002 1.66675ZM7.50016 5.83341C7.50016 4.4527 8.61945 3.33341 10.0002 3.33341C11.3809 3.33341 12.5002 4.4527 12.5002 5.83341C12.5002 7.21413 11.3809 8.33341 10.0002 8.33341C8.61945 8.33341 7.50016 7.21413 7.50016 5.83341Z" fill="white" fill-opacity="0.8"/>
<path fill-rule="evenodd" clip-rule="evenodd" d="M10.0002 19.1667C8.71641 19.1667 6.85834 18.8752 5.46302 18.2646C4.77802 17.9648 4.08137 17.5357 3.67662 16.9146C3.46376 16.5879 3.32919 16.2032 3.3336 15.7736C3.33797 15.3479 3.47803 14.9402 3.71343 14.5607C4.85459 12.7214 7.18915 10.8334 10.0002 10.8334C12.8112 10.8334 15.1457 12.7214 16.2869 14.5607C16.5223 14.9402 16.6624 15.3479 16.6667 15.7736C16.6711 16.2032 16.5366 16.5879 16.3237 16.9146C15.919 17.5357 15.2223 17.9648 14.5373 18.2646C13.142 18.8752 11.2839 19.1667 10.0002 19.1667ZM5.12966 15.4394C5.01993 15.6163 5.0008 15.7298 5.00018 15.7907C4.9996 15.8476 5.01422 15.9145 5.07297 16.0046C5.21145 16.2171 5.54772 16.4823 6.13127 16.7377C7.27303 17.2374 8.89453 17.5001 10.0002 17.5001C11.1058 17.5001 12.7273 17.2374 13.8691 16.7377C14.4526 16.4823 14.7889 16.2171 14.9274 16.0046C14.9861 15.9145 15.0007 15.8476 15.0001 15.7907C14.9995 15.7298 14.9804 15.6163 14.8707 15.4394C13.9355 13.9322 12.0704 12.5001 10.0002 12.5001C7.92988 12.5001 6.06478 13.9322 5.12966 15.4394Z" fill="white" fill-opacity="0.8"/>
</svg>
