<svg width="20" height="20" viewBox="0 0 20 20" fill="none" xmlns="http://www.w3.org/2000/svg">
<path fill-rule="evenodd" clip-rule="evenodd" d="M9.99968 1.66663C7.69849 1.66663 5.83301 3.53211 5.83301 5.83329C5.83301 8.13448 7.69849 9.99996 9.99968 9.99996C12.3009 9.99996 14.1663 8.13448 14.1663 5.83329C14.1663 3.53211 12.3009 1.66663 9.99968 1.66663ZM7.49968 5.83329C7.49968 4.45258 8.61896 3.33329 9.99968 3.33329C11.3804 3.33329 12.4997 4.45258 12.4997 5.83329C12.4997 7.214 11.3804 8.33329 9.99968 8.33329C8.61896 8.33329 7.49968 7.214 7.49968 5.83329Z" fill="#34383B"/>
<path fill-rule="evenodd" clip-rule="evenodd" d="M9.99967 19.1666C8.71592 19.1666 6.85786 18.8751 5.46253 18.2644C4.77753 17.9646 4.08088 17.5356 3.67614 16.9145C3.46327 16.5878 3.3287 16.203 3.33311 15.7735C3.33748 15.3478 3.47754 14.94 3.71294 14.5606C4.8541 12.7213 7.18867 10.8333 9.99967 10.8333C12.8107 10.8333 15.1452 12.7213 16.2864 14.5606C16.5218 14.94 16.6619 15.3478 16.6662 15.7735C16.6706 16.2031 16.5361 16.5878 16.3232 16.9145C15.9185 17.5356 15.2218 17.9646 14.5368 18.2644C13.1415 18.8751 11.2834 19.1666 9.99967 19.1666ZM5.12917 15.4393C5.01944 15.6162 5.00032 15.7297 4.99969 15.7906C4.99911 15.8475 5.01373 15.9144 5.07248 16.0045C5.21096 16.217 5.54723 16.4822 6.13078 16.7376C7.27254 17.2373 8.89404 17.5 9.99967 17.5C11.1053 17.5 12.7268 17.2373 13.8686 16.7376C14.4521 16.4822 14.7884 16.217 14.9269 16.0045C14.9856 15.9144 15.0002 15.8475 14.9997 15.7906C14.999 15.7297 14.9799 15.6162 14.8702 15.4393C13.9351 13.9321 12.07 12.5 9.99967 12.5C7.92939 12.5 6.06429 13.9321 5.12917 15.4393Z" fill="#34383B"/>
</svg>
