<svg width="33" height="12" viewBox="0 0 33 12" fill="none" xmlns="http://www.w3.org/2000/svg">
<g clip-path="url(#clip0_220_3339)">
<path d="M17.0926 4.116C17.0743 5.5555 18.3755 6.35875 19.3556 6.83637C20.3626 7.32637 20.7008 7.64062 20.6968 8.07887C20.6893 8.7495 19.8936 9.0455 19.149 9.057C17.8498 9.07712 17.0945 8.70625 16.494 8.42575L16.026 10.6156C16.6285 10.8932 17.7441 11.1354 18.901 11.146C21.6166 11.146 23.3932 9.8055 23.4028 7.72712C23.4135 5.08937 19.7543 4.94337 19.7793 3.76437C19.788 3.40687 20.1291 3.02537 20.8766 2.92837C21.2466 2.87937 22.268 2.84187 23.426 3.37512L23.8805 1.25637C23.2577 1.02962 22.4573 0.812496 21.4608 0.812496C18.9048 0.812496 17.1071 2.17125 17.0926 4.116ZM28.2477 0.994996C27.7518 0.994996 27.334 1.28425 27.1475 1.72812L23.2683 10.9904H25.982L26.522 9.498H29.838L30.1512 10.9904H32.543L30.4558 0.994996H28.2477ZM28.6273 3.69512L29.4105 7.4485H27.2657L28.6273 3.69512ZM13.8025 0.995121L11.6635 10.9902H14.2493L16.3873 0.994871H13.8025M9.97709 0.994871L7.28559 7.79825L6.19684 2.01362C6.06909 1.36787 5.56459 0.994996 5.00434 0.994996H0.604594L0.542969 1.28525C1.44622 1.48125 2.47247 1.79737 3.09422 2.13562C3.47472 2.34225 3.58322 2.52287 3.70822 3.01387L5.77034 10.9904H8.50297L12.6925 0.994996L9.97709 0.994871Z" fill="url(#paint0_linear_220_3339)"/>
</g>
<defs>
<linearGradient id="paint0_linear_220_3339" x1="1471.71" y1="31.875" x2="1501.62" y2="-1029.39" gradientUnits="userSpaceOnUse">
<stop stop-color="#222357"/>
<stop offset="1" stop-color="#254AA5"/>
</linearGradient>
<clipPath id="clip0_220_3339">
<rect width="32" height="10.375" fill="white" transform="translate(0.542969 0.8125)"/>
</clipPath>
</defs>
</svg>
