<svg width="61" height="20" viewBox="0 0 61 20" fill="none" xmlns="http://www.w3.org/2000/svg">
<path d="M26.4447 19.6641H21.4688L24.5781 0.346298H29.554L26.4447 19.6641Z" fill="white"/>
<path d="M17.2803 0.346298L12.5345 13.6331L11.9719 10.7701L10.2996 2.06723C10.2996 2.06723 10.0951 0.346298 7.93696 0.346298H0.0920523L0 0.67188C1.8364 1.13786 3.59188 1.8837 5.20607 2.88377L9.53253 19.6641H14.7181L22.6346 0.346298H17.2803Z" fill="white"/>
<path d="M56.427 19.6639H60.9989L57.0151 0.346084H53.0108C52.5261 0.308451 52.0421 0.427958 51.6292 0.687247C51.2163 0.946536 50.8959 1.3321 50.7146 1.78794L43.2891 19.6639H48.4798L49.5026 16.7957H55.844L56.427 19.6639ZM50.9499 12.8319L53.5682 5.59673L55.036 12.8319H50.9499Z" fill="white"/>
<path d="M43.6788 4.99225L44.3896 0.857881C42.9529 0.332497 41.4422 0.0428739 39.9148 0C37.4448 0 31.579 1.09044 31.579 6.39793C31.579 11.3902 38.4625 11.4522 38.4625 14.0724C38.4625 16.6925 32.2898 16.2222 30.2493 14.5891L29.5078 18.9044C31.2875 19.6599 33.2032 20.033 35.1332 20C38.5289 20 43.6532 18.2222 43.6532 13.385C43.6532 8.36176 36.7083 7.89147 36.7083 5.71059C36.7083 3.52972 41.5513 3.80362 43.6788 4.99225Z" fill="white"/>
<path d="M11.9719 10.7752L10.2996 2.06723C10.2996 2.06723 10.0951 0.346298 7.93696 0.346298H0.0920523L0 0.67188C2.7017 1.36795 5.22253 2.64607 7.38976 4.41865C9.44697 6.09032 11.0282 8.28388 11.9719 10.7752Z" fill="white"/>
</svg>
